<svg width="24" height="24" viewBox="0 0 24 24" fill="none" xmlns="http://www.w3.org/2000/svg">
<g id="heroicons-mini/ellipsis-horizontal">
<g id="Union">
<path d="M3.6001 12C3.6001 11.0059 4.40599 10.2 5.4001 10.2C6.39421 10.2 7.2001 11.0059 7.2001 12C7.2001 12.9941 6.39421 13.8 5.4001 13.8C4.40599 13.8 3.6001 12.9941 3.6001 12Z" fill="#C0C0C0" style="mix-blend-mode:color-dodge"/>
<path d="M10.2001 12C10.2001 11.0059 11.006 10.2 12.0001 10.2C12.9942 10.2 13.8001 11.0059 13.8001 12C13.8001 12.9941 12.9942 13.8 12.0001 13.8C11.006 13.8 10.2001 12.9941 10.2001 12Z" fill="#C0C0C0" style="mix-blend-mode:color-dodge"/>
<path d="M18.6001 10.2C17.606 10.2 16.8001 11.0059 16.8001 12C16.8001 12.9941 17.606 13.8 18.6001 13.8C19.5942 13.8 20.4001 12.9941 20.4001 12C20.4001 11.0059 19.5942 10.2 18.6001 10.2Z" fill="#C0C0C0" style="mix-blend-mode:color-dodge"/>
</g>
</g>
</svg>
