<svg width="82" height="24" viewBox="0 0 82 24" fill="none" xmlns="http://www.w3.org/2000/svg">
<path d="M5.82335 18.4492C4.48945 18.4492 3.38451 18.1283 2.50852 17.4866C1.65244 16.8235 1.01535 15.9786 0.597266 14.9519C0.199089 13.9037 0 12.8235 0 11.7112C0 10.492 0.218998 9.37968 0.656993 8.37433C1.1149 7.34759 1.77189 6.53476 2.62797 5.93583C3.50396 5.3369 4.54918 5.03743 5.76362 5.03743C7.31651 5.03743 8.61059 5.58289 9.64585 6.6738C10.6811 7.74332 11.2386 9.18717 11.3182 11.0053C11.3381 11.0909 11.3481 11.2193 11.3481 11.3904C11.3481 11.5401 11.3481 11.6791 11.3481 11.8075H1.85153C1.85153 13.3262 2.18998 14.5241 2.86688 15.4011C3.56369 16.2567 4.53922 16.6845 5.79348 16.6845C6.7292 16.6845 7.52556 16.4278 8.18255 15.9144C8.85945 15.4011 9.27754 14.7059 9.43681 13.8289H11.3182C11.1191 15.1551 10.5318 16.2567 9.55626 17.1337C8.58073 18.0107 7.33642 18.4492 5.82335 18.4492ZM1.91125 10.6845H9.37708C9.37708 10.2353 9.25763 9.70053 9.01872 9.08021C8.79972 8.45989 8.42146 7.92513 7.88392 7.47594C7.36629 7.00535 6.64957 6.77005 5.73376 6.77005C4.89758 6.77005 4.21073 6.96257 3.67319 7.34759C3.13565 7.73262 2.72752 8.2246 2.44879 8.82353C2.17007 9.42246 1.99089 10.0428 1.91125 10.6845Z" fill="#111827"/>
<path d="M12.9359 18.1283L17.3856 11.3904L13.145 5.06952H15.325L18.61 10.0749L21.8949 5.06952H24.075L19.8344 11.3904L24.3437 18.1283H22.1339L18.61 12.738L15.0861 18.1283H12.9359Z" fill="#111827"/>
<path d="M33.8393 18.4492C33.0828 18.4492 32.4457 18.3316 31.9281 18.0963C31.4304 17.8396 31.0222 17.5401 30.7037 17.1979C30.4051 16.8556 30.1761 16.5455 30.0168 16.2674C29.8775 15.9893 29.7978 15.8289 29.7779 15.7861H29.7182V24H26.5826V4.94118H29.2404L29.7481 7.82888H29.8078C29.8277 7.76471 29.8974 7.58289 30.0168 7.28342C30.1562 6.98396 30.3652 6.65241 30.644 6.28877C30.9426 5.92513 31.3507 5.61497 31.8684 5.35829C32.386 5.08021 33.033 4.94118 33.8095 4.94118C35.6411 4.94118 36.9551 5.57219 37.7514 6.83422C38.5478 8.09626 38.946 9.74332 38.946 11.7754C38.946 13.8075 38.5378 15.4332 37.7216 16.6524C36.9053 17.8503 35.6112 18.4492 33.8393 18.4492ZM32.9136 15.6898C33.7497 15.6898 34.3868 15.508 34.8248 15.1444C35.2827 14.7594 35.5913 14.2674 35.7506 13.6684C35.9298 13.0481 36.0194 12.4064 36.0194 11.7433C36.0194 11.0802 35.9198 10.4599 35.7207 9.88235C35.5415 9.28342 35.223 8.80214 34.7651 8.4385C34.3072 8.05348 33.6701 7.86096 32.8538 7.86096C31.739 7.86096 30.9426 8.23529 30.4648 8.98396C29.987 9.71123 29.7481 10.631 29.7481 11.7433C29.7481 12.8984 29.9969 13.8503 30.4946 14.5989C30.9924 15.3262 31.7987 15.6898 32.9136 15.6898Z" fill="#111827"/>
<path d="M51.2826 18.1283C50.307 18.1283 49.5704 17.8717 49.0727 17.3583C48.5949 16.8449 48.3559 16.0107 48.3559 14.8556V7.25134H46.5044V4.94118C47.0818 4.94118 47.5297 4.87701 47.8483 4.74866C48.1668 4.62032 48.3958 4.32086 48.5351 3.85027C48.6745 3.37968 48.7442 2.62032 48.7442 1.57219H51.193V4.94118H54.0001V7.25134H51.193V15.5615H54.0598V18.1283H51.2826Z" fill="#111827"/>
<path d="M62.0588 18.4492C60.9041 18.4492 59.8588 18.2032 58.9231 17.7112C57.9874 17.1979 57.2408 16.4492 56.6834 15.4652C56.1259 14.4599 55.8472 13.2406 55.8472 11.8075C55.887 10.3743 56.1757 9.14439 56.7132 8.11765C57.2707 7.09091 58.0073 6.29947 58.9231 5.74332C59.8588 5.18717 60.924 4.90909 62.1185 4.90909C63.3329 4.90909 64.3682 5.16577 65.2243 5.67914C66.1003 6.17112 66.7772 6.82353 67.255 7.63636C67.7328 8.42781 68.0016 9.25134 68.0613 10.107H65.2541C64.9555 8.52407 63.9402 7.73262 62.2081 7.73262C61.133 7.73262 60.2968 8.08556 59.6996 8.79144C59.1222 9.49733 58.8335 10.4171 58.8335 11.5508C58.8335 12.7914 59.1123 13.7861 59.6697 14.5348C60.2471 15.262 61.0932 15.6257 62.2081 15.6257C62.9646 15.6257 63.6216 15.4118 64.1791 14.984C64.7564 14.5562 65.1148 13.9251 65.2541 13.0909H68.0613C68.0016 14.0107 67.7229 14.877 67.2251 15.6898C66.7473 16.5027 66.0704 17.1658 65.1944 17.6791C64.3383 18.1925 63.2931 18.4492 62.0588 18.4492Z" fill="#111827"/>
<path d="M70.3234 18.1283V0.0641703H73.4591V7.79679H73.5188C73.5387 7.73262 73.6084 7.5615 73.7279 7.28342C73.8672 6.98396 74.0763 6.65241 74.355 6.28877C74.6536 5.92513 75.0518 5.61497 75.5495 5.35829C76.0672 5.08021 76.7142 4.94118 77.4906 4.94118C78.5657 4.94118 79.4118 5.18717 80.029 5.67914C80.6462 6.14973 81.0941 6.74866 81.3729 7.47594C81.6516 8.20321 81.8208 8.95187 81.8805 9.72192C81.9602 10.492 82 11.1658 82 11.7433V18.1283H79.0435V11.7112C79.0435 11.0053 78.9739 10.3636 78.8345 9.7861C78.715 9.18717 78.4662 8.71658 78.0879 8.37433C77.7096 8.0107 77.1323 7.82888 76.3558 7.82888C75.5794 7.82888 74.9821 8.02139 74.564 8.40642C74.146 8.79144 73.8573 9.29412 73.698 9.91444C73.5387 10.5134 73.4591 11.1551 73.4591 11.8396V18.1283H70.3234Z" fill="#111827"/>
<path fill-rule="evenodd" clip-rule="evenodd" d="M41.4004 4.94118V18.1283H44.4464V4.94118H41.4004Z" fill="#111827"/>
<path d="M42.9533 3.49733C42.2963 3.51872 41.8583 3.35829 41.6393 3.01604C41.4402 2.65241 41.3406 2.2246 41.3406 1.73262C41.3406 1.26203 41.4501 0.855614 41.6691 0.513368C41.8881 0.171123 42.3162 0 42.9533 0C43.5704 0 43.9786 0.171123 44.1776 0.513368C44.3966 0.855614 44.5061 1.26203 44.5061 1.73262C44.5061 2.2246 44.3966 2.64171 44.1776 2.98396C43.9786 3.30481 43.5704 3.47594 42.9533 3.49733Z" fill="#E71561"/>
</svg>
