<svg width="20" height="20" viewBox="0 0 20 20" fill="none" xmlns="http://www.w3.org/2000/svg">
<path d="M2.94194 2.05806C2.69786 1.81398 2.30214 1.81398 2.05806 2.05806C1.81398 2.30214 1.81398 2.69786 2.05806 2.94194L17.0581 17.9419C17.3021 18.186 17.6979 18.186 17.9419 17.9419C18.186 17.6979 18.186 17.3021 17.9419 17.0581L2.94194 2.05806Z" fill="#6B7280"/>
<path d="M18.8966 10.4611C18.4432 11.8239 17.6855 13.0479 16.7039 14.0523L14.1218 11.4702C14.2857 11.0107 14.375 10.5158 14.375 10C14.375 7.58375 12.4162 5.625 10 5.625C9.48422 5.625 8.98929 5.71425 8.52981 5.87816L6.46581 3.81416C7.55653 3.36984 8.74981 3.125 10.0004 3.125C14.1423 3.125 17.6554 5.8106 18.8963 9.53371C18.9966 9.8346 18.9967 10.1601 18.8966 10.4611Z" fill="#6B7280"/>
<path d="M13.125 10C13.125 10.1501 13.1144 10.2978 13.0939 10.4423L9.55771 6.90606C9.7022 6.88559 9.84986 6.875 10 6.875C11.7259 6.875 13.125 8.27411 13.125 10Z" fill="#6B7280"/>
<path d="M10.4423 13.0939L6.90606 9.55771C6.88559 9.7022 6.875 9.84986 6.875 10C6.875 11.7259 8.27411 13.125 10 13.125C10.1501 13.125 10.2978 13.1144 10.4423 13.0939Z" fill="#6B7280"/>
<path d="M5.625 10C5.625 9.48422 5.71425 8.98929 5.87816 8.52981L3.29577 5.94742C2.31405 6.95185 1.55623 8.17595 1.10284 9.53891C1.00274 9.83986 1.00283 10.1654 1.10312 10.4663C2.34403 14.1894 5.85706 16.875 9.99897 16.875C11.2498 16.875 12.4432 16.6301 13.534 16.1857L11.4702 14.1218C11.0107 14.2857 10.5158 14.375 10 14.375C7.58375 14.375 5.625 12.4162 5.625 10Z" fill="#6B7280"/>
</svg>
