<svg width="36" height="34" viewBox="0 0 36 34" fill="none" xmlns="http://www.w3.org/2000/svg">
<rect x="0.5" y="0.5" width="35" height="33" rx="5.5" fill="#FEF2F2"/>
<path d="M18.358 23.216C17.122 23.216 16.054 22.946 15.154 22.406C14.266 21.854 13.576 21.092 13.084 20.12C12.592 19.136 12.346 17.996 12.346 16.7C12.346 15.416 12.592 14.288 13.084 13.316C13.576 12.332 14.266 11.564 15.154 11.012C16.054 10.46 17.122 10.184 18.358 10.184C19.798 10.184 20.968 10.532 21.868 11.228C22.78 11.912 23.362 12.872 23.614 14.108H21.94C21.748 13.328 21.352 12.704 20.752 12.236C20.164 11.756 19.366 11.516 18.358 11.516C17.458 11.516 16.672 11.726 16 12.146C15.328 12.554 14.806 13.148 14.434 13.928C14.074 14.696 13.894 15.62 13.894 16.7C13.894 17.78 14.074 18.71 14.434 19.49C14.806 20.258 15.328 20.852 16 21.272C16.672 21.68 17.458 21.884 18.358 21.884C19.366 21.884 20.164 21.656 20.752 21.2C21.352 20.732 21.748 20.114 21.94 19.346H23.614C23.362 20.558 22.78 21.506 21.868 22.19C20.968 22.874 19.798 23.216 18.358 23.216Z" fill="#DC2626"/>
<rect x="0.5" y="0.5" width="35" height="33" rx="5.5" stroke="#FECACA"/>
</svg>
