<svg width="1175" height="963" viewBox="0 0 1175 963" fill="none" xmlns="http://www.w3.org/2000/svg">
<path d="M69.9242 -76.5218L-172.638 793.731M176.605 -59.6495L-65.9573 810.603M283.285 -42.7773L40.7232 827.475M389.966 -25.9051L147.404 844.348M496.646 -9.03283L254.084 861.22M603.326 7.83941L360.765 878.092M710.007 24.7116L467.445 894.964M816.687 41.5839L574.125 911.837M923.368 58.4561L680.806 928.709M1030.05 75.3283L787.486 945.581M1136.73 92.2006L894.167 962.453M1173.98 136.494L10.4995 -47.5188M1151.74 216.288L-11.7411 32.2751M1129.5 296.082L-33.9817 112.069M1107.26 375.876L-56.2223 191.863M1085.02 455.67L-78.463 271.657M1062.78 535.464L-100.704 351.451M1040.54 615.258L-122.944 431.245M1018.3 695.052L-145.185 511.039M996.058 774.845L-167.425 590.833M973.818 854.639L-189.666 670.627M951.577 934.433L-211.907 750.421" stroke="url(#paint0_radial_1887_2109)" stroke-width="0.643589"/>
<defs>
<radialGradient id="paint0_radial_1887_2109" cx="0" cy="0" r="1" gradientUnits="userSpaceOnUse" gradientTransform="translate(187.894 162.851) rotate(52.4813) scale(909.658 1555.4)">
<stop stop-color="#BDA5AE" stop-opacity="0.53"/>
<stop offset="1" stop-color="white" stop-opacity="0"/>
</radialGradient>
</defs>
</svg>
