<svg width="32" height="32" viewBox="0 0 32 32" fill="none" xmlns="http://www.w3.org/2000/svg">
<g id="heroicons-mini/microphone" opacity="0.78">
<g id="Union">
<path d="M11.2 6.4001C11.2 3.74913 13.3491 1.6001 16 1.6001C18.651 1.6001 20.8 3.74913 20.8 6.4001V16.0001C20.8 18.6511 18.651 20.8001 16 20.8001C13.3491 20.8001 11.2 18.6511 11.2 16.0001V6.4001Z" fill="#6B7280"/>
<path d="M8.80002 15.4286C8.80002 14.7659 8.26277 14.2286 7.60002 14.2286C6.93728 14.2286 6.40002 14.7659 6.40002 15.4286V16C6.40002 20.8956 10.0645 24.9353 14.8 25.5258V28.0001H12.4C11.7373 28.0001 11.2 28.5374 11.2 29.2001C11.2 29.8628 11.7373 30.4001 12.4 30.4001H19.6C20.2628 30.4001 20.8 29.8628 20.8 29.2001C20.8 28.5374 20.2628 28.0001 19.6 28.0001H17.2V25.5258C21.9356 24.9353 25.6 20.8956 25.6 16V15.4286C25.6 14.7659 25.0628 14.2286 24.4 14.2286C23.7373 14.2286 23.2 14.7659 23.2 15.4286V16C23.2 19.9765 19.9765 23.2 16 23.2C12.0236 23.2 8.80002 19.9765 8.80002 16V15.4286Z" fill="#6B7280"/>
</g>
</g>
</svg>
