<svg width="24" height="24" viewBox="0 0 24 24" fill="none" xmlns="http://www.w3.org/2000/svg">
<path fill-rule="evenodd" clip-rule="evenodd" d="M6.00039 3.3002C6.00039 2.1404 6.94059 1.2002 8.10039 1.2002H15.9004C17.0602 1.2002 18.0004 2.1404 18.0004 3.3002V7.5002C18.0004 7.52099 18.0001 7.54171 17.9995 7.56235C18.4522 7.6174 18.9031 7.6786 19.352 7.74586C20.6699 7.94336 21.6004 9.08585 21.6004 10.3838V15.3002C21.6004 16.7914 20.3916 18.0002 18.9004 18.0002H18.6107L18.977 20.3809C19.1727 21.653 18.1885 22.8002 16.9014 22.8002H7.09889C5.81183 22.8002 4.8276 21.653 5.02331 20.3809L5.38957 18.0002H5.10039C3.60922 18.0002 2.40039 16.7914 2.40039 15.3002V10.3838C2.40039 9.08585 3.33084 7.94336 4.64881 7.74586C5.0977 7.6786 5.54856 7.6174 6.00129 7.56235C6.00069 7.54171 6.00039 7.52099 6.00039 7.5002V3.3002ZM16.2004 7.377C14.8158 7.25992 13.415 7.20019 12.0004 7.20019C10.5858 7.20019 9.18502 7.25992 7.80039 7.377V3.3002C7.80039 3.13451 7.93471 3.0002 8.10039 3.0002H15.9004C16.0661 3.0002 16.2004 3.13451 16.2004 3.3002V7.377ZM7.92966 15.0002C7.78159 15.0002 7.65566 15.1082 7.63315 15.2546L6.80238 20.6546C6.77442 20.8363 6.91502 21.0002 7.09889 21.0002H16.9014C17.0853 21.0002 17.2259 20.8363 17.1979 20.6546L16.3672 15.2546C16.3446 15.1082 16.2187 15.0002 16.0707 15.0002H7.92966Z" fill="#6B7280"/>
</svg>
