<svg width="278" height="38" viewBox="0 0 278 38" fill="none" xmlns="http://www.w3.org/2000/svg">
<path d="M2.375 29.0938C3.3584 29.0938 4.15625 28.2965 4.15625 27.3126V10.6876C4.15625 9.70359 3.35839 8.90631 2.375 8.90631C1.39161 8.90631 0.59375 9.70359 0.59375 10.6876V27.3126C0.59375 28.2965 1.39161 29.0938 2.375 29.0938ZM10.8058 33.736V4.26416C10.8058 3.28019 10.0079 2.48291 9.02454 2.48291C8.04114 2.48291 7.24329 3.28019 7.24329 4.26416V33.736C7.24329 34.7199 8.04114 35.5172 9.02454 35.5172C10.0079 35.5172 10.8058 34.7199 10.8058 33.736ZM17.4565 27.3126V10.6876C17.4565 9.70359 16.6586 8.90631 15.6752 8.90631C14.6918 8.90631 13.894 9.70359 13.894 10.6876V27.3126C13.894 28.2965 14.6918 29.0938 15.6752 29.0938C16.6586 29.0938 17.4565 28.2965 17.4565 27.3126ZM24.106 33.736V4.26416C24.106 3.28019 23.3082 2.48291 22.3248 2.48291C21.3414 2.48291 20.5435 3.28019 20.5435 4.26416V33.736C20.5435 34.7199 21.3414 35.5172 22.3248 35.5172C23.3082 35.5172 24.106 34.7199 24.106 33.736ZM30.7567 27.3126V10.6876C30.7567 9.70359 29.9589 8.90631 28.9755 8.90631C27.9921 8.90631 27.1942 9.70359 27.1942 10.6876V27.3126C27.1942 28.2965 27.9921 29.0938 28.9755 29.0938C29.9589 29.0938 30.7567 28.2965 30.7567 27.3126ZM35.625 2.48291C34.6416 2.48291 33.8438 3.28019 33.8438 4.26416V33.736C33.8438 34.7199 34.6416 35.5172 35.625 35.5172C36.6084 35.5172 37.4062 34.7199 37.4062 33.736V4.26416C37.4062 3.28019 36.6084 2.48291 35.625 2.48291Z" fill="#D1D5DB"/>
<path d="M42.375 29.0938C43.3584 29.0938 44.1562 28.2965 44.1562 27.3126V10.6876C44.1562 9.70359 43.3584 8.90631 42.375 8.90631C41.3916 8.90631 40.5938 9.70359 40.5938 10.6876V27.3126C40.5938 28.2965 41.3916 29.0938 42.375 29.0938ZM50.8058 33.736V4.26416C50.8058 3.28019 50.0079 2.48291 49.0245 2.48291C48.0411 2.48291 47.2433 3.28019 47.2433 4.26416V33.736C47.2433 34.7199 48.0411 35.5172 49.0245 35.5172C50.0079 35.5172 50.8058 34.7199 50.8058 33.736ZM57.4565 27.3126V10.6876C57.4565 9.70359 56.6586 8.90631 55.6752 8.90631C54.6918 8.90631 53.894 9.70359 53.894 10.6876V27.3126C53.894 28.2965 54.6918 29.0938 55.6752 29.0938C56.6586 29.0938 57.4565 28.2965 57.4565 27.3126ZM64.106 33.736V4.26416C64.106 3.28019 63.3082 2.48291 62.3248 2.48291C61.3414 2.48291 60.5435 3.28019 60.5435 4.26416V33.736C60.5435 34.7199 61.3414 35.5172 62.3248 35.5172C63.3082 35.5172 64.106 34.7199 64.106 33.736ZM70.7567 27.3126V10.6876C70.7567 9.70359 69.9589 8.90631 68.9755 8.90631C67.9921 8.90631 67.1942 9.70359 67.1942 10.6876V27.3126C67.1942 28.2965 67.9921 29.0938 68.9755 29.0938C69.9589 29.0938 70.7567 28.2965 70.7567 27.3126ZM75.625 2.48291C74.6416 2.48291 73.8438 3.28019 73.8438 4.26416V33.736C73.8438 34.7199 74.6416 35.5172 75.625 35.5172C76.6084 35.5172 77.4062 34.7199 77.4062 33.736V4.26416C77.4062 3.28019 76.6084 2.48291 75.625 2.48291Z" fill="#D1D5DB"/>
<path d="M82.375 29.0938C83.3584 29.0938 84.1562 28.2965 84.1562 27.3126V10.6876C84.1562 9.70359 83.3584 8.90631 82.375 8.90631C81.3916 8.90631 80.5938 9.70359 80.5938 10.6876V27.3126C80.5938 28.2965 81.3916 29.0938 82.375 29.0938ZM90.8058 33.736V4.26416C90.8058 3.28019 90.0079 2.48291 89.0245 2.48291C88.0411 2.48291 87.2433 3.28019 87.2433 4.26416V33.736C87.2433 34.7199 88.0411 35.5172 89.0245 35.5172C90.0079 35.5172 90.8058 34.7199 90.8058 33.736ZM97.4565 27.3126V10.6876C97.4565 9.70359 96.6586 8.90631 95.6752 8.90631C94.6918 8.90631 93.894 9.70359 93.894 10.6876V27.3126C93.894 28.2965 94.6918 29.0938 95.6752 29.0938C96.6586 29.0938 97.4565 28.2965 97.4565 27.3126ZM104.106 33.736V4.26416C104.106 3.28019 103.308 2.48291 102.325 2.48291C101.341 2.48291 100.544 3.28019 100.544 4.26416V33.736C100.544 34.7199 101.341 35.5172 102.325 35.5172C103.308 35.5172 104.106 34.7199 104.106 33.736ZM110.757 27.3126V10.6876C110.757 9.70359 109.959 8.90631 108.975 8.90631C107.992 8.90631 107.194 9.70359 107.194 10.6876V27.3126C107.194 28.2965 107.992 29.0938 108.975 29.0938C109.959 29.0938 110.757 28.2965 110.757 27.3126ZM115.625 2.48291C114.642 2.48291 113.844 3.28019 113.844 4.26416V33.736C113.844 34.7199 114.642 35.5172 115.625 35.5172C116.608 35.5172 117.406 34.7199 117.406 33.736V4.26416C117.406 3.28019 116.608 2.48291 115.625 2.48291Z" fill="#D1D5DB"/>
<path d="M122.375 29.0938C123.358 29.0938 124.156 28.2965 124.156 27.3126V10.6876C124.156 9.70359 123.358 8.90631 122.375 8.90631C121.392 8.90631 120.594 9.70359 120.594 10.6876V27.3126C120.594 28.2965 121.392 29.0938 122.375 29.0938ZM130.806 33.736V4.26416C130.806 3.28019 130.008 2.48291 129.025 2.48291C128.041 2.48291 127.243 3.28019 127.243 4.26416V33.736C127.243 34.7199 128.041 35.5172 129.025 35.5172C130.008 35.5172 130.806 34.7199 130.806 33.736ZM137.456 27.3126V10.6876C137.456 9.70359 136.659 8.90631 135.675 8.90631C134.692 8.90631 133.894 9.70359 133.894 10.6876V27.3126C133.894 28.2965 134.692 29.0938 135.675 29.0938C136.659 29.0938 137.456 28.2965 137.456 27.3126ZM144.106 33.736V4.26416C144.106 3.28019 143.308 2.48291 142.325 2.48291C141.341 2.48291 140.544 3.28019 140.544 4.26416V33.736C140.544 34.7199 141.341 35.5172 142.325 35.5172C143.308 35.5172 144.106 34.7199 144.106 33.736ZM150.757 27.3126V10.6876C150.757 9.70359 149.959 8.90631 148.975 8.90631C147.992 8.90631 147.194 9.70359 147.194 10.6876V27.3126C147.194 28.2965 147.992 29.0938 148.975 29.0938C149.959 29.0938 150.757 28.2965 150.757 27.3126ZM155.625 2.48291C154.642 2.48291 153.844 3.28019 153.844 4.26416V33.736C153.844 34.7199 154.642 35.5172 155.625 35.5172C156.608 35.5172 157.406 34.7199 157.406 33.736V4.26416C157.406 3.28019 156.608 2.48291 155.625 2.48291Z" fill="#D1D5DB"/>
<path d="M162.375 29.0938C163.358 29.0938 164.156 28.2965 164.156 27.3126V10.6876C164.156 9.70359 163.358 8.90631 162.375 8.90631C161.392 8.90631 160.594 9.70359 160.594 10.6876V27.3126C160.594 28.2965 161.392 29.0938 162.375 29.0938ZM170.806 33.736V4.26416C170.806 3.28019 170.008 2.48291 169.025 2.48291C168.041 2.48291 167.243 3.28019 167.243 4.26416V33.736C167.243 34.7199 168.041 35.5172 169.025 35.5172C170.008 35.5172 170.806 34.7199 170.806 33.736ZM177.456 27.3126V10.6876C177.456 9.70359 176.659 8.90631 175.675 8.90631C174.692 8.90631 173.894 9.70359 173.894 10.6876V27.3126C173.894 28.2965 174.692 29.0938 175.675 29.0938C176.659 29.0938 177.456 28.2965 177.456 27.3126ZM184.106 33.736V4.26416C184.106 3.28019 183.308 2.48291 182.325 2.48291C181.341 2.48291 180.544 3.28019 180.544 4.26416V33.736C180.544 34.7199 181.341 35.5172 182.325 35.5172C183.308 35.5172 184.106 34.7199 184.106 33.736ZM190.757 27.3126V10.6876C190.757 9.70359 189.959 8.90631 188.975 8.90631C187.992 8.90631 187.194 9.70359 187.194 10.6876V27.3126C187.194 28.2965 187.992 29.0938 188.975 29.0938C189.959 29.0938 190.757 28.2965 190.757 27.3126ZM195.625 2.48291C194.642 2.48291 193.844 3.28019 193.844 4.26416V33.736C193.844 34.7199 194.642 35.5172 195.625 35.5172C196.608 35.5172 197.406 34.7199 197.406 33.736V4.26416C197.406 3.28019 196.608 2.48291 195.625 2.48291Z" fill="#D1D5DB"/>
<path d="M202.375 29.0938C203.358 29.0938 204.156 28.2965 204.156 27.3126V10.6876C204.156 9.70359 203.358 8.90631 202.375 8.90631C201.392 8.90631 200.594 9.70359 200.594 10.6876V27.3126C200.594 28.2965 201.392 29.0938 202.375 29.0938ZM210.806 33.736V4.26416C210.806 3.28019 210.008 2.48291 209.025 2.48291C208.041 2.48291 207.243 3.28019 207.243 4.26416V33.736C207.243 34.7199 208.041 35.5172 209.025 35.5172C210.008 35.5172 210.806 34.7199 210.806 33.736ZM217.456 27.3126V10.6876C217.456 9.70359 216.659 8.90631 215.675 8.90631C214.692 8.90631 213.894 9.70359 213.894 10.6876V27.3126C213.894 28.2965 214.692 29.0938 215.675 29.0938C216.659 29.0938 217.456 28.2965 217.456 27.3126ZM224.106 33.736V4.26416C224.106 3.28019 223.308 2.48291 222.325 2.48291C221.341 2.48291 220.544 3.28019 220.544 4.26416V33.736C220.544 34.7199 221.341 35.5172 222.325 35.5172C223.308 35.5172 224.106 34.7199 224.106 33.736ZM230.757 27.3126V10.6876C230.757 9.70359 229.959 8.90631 228.975 8.90631C227.992 8.90631 227.194 9.70359 227.194 10.6876V27.3126C227.194 28.2965 227.992 29.0938 228.975 29.0938C229.959 29.0938 230.757 28.2965 230.757 27.3126ZM235.625 2.48291C234.642 2.48291 233.844 3.28019 233.844 4.26416V33.736C233.844 34.7199 234.642 35.5172 235.625 35.5172C236.608 35.5172 237.406 34.7199 237.406 33.736V4.26416C237.406 3.28019 236.608 2.48291 235.625 2.48291Z" fill="#D1D5DB"/>
<path d="M242.375 29.0938C243.358 29.0938 244.156 28.2965 244.156 27.3126V10.6876C244.156 9.70359 243.358 8.90631 242.375 8.90631C241.392 8.90631 240.594 9.70359 240.594 10.6876V27.3126C240.594 28.2965 241.392 29.0938 242.375 29.0938ZM250.806 33.736V4.26416C250.806 3.28019 250.008 2.48291 249.025 2.48291C248.041 2.48291 247.243 3.28019 247.243 4.26416V33.736C247.243 34.7199 248.041 35.5172 249.025 35.5172C250.008 35.5172 250.806 34.7199 250.806 33.736ZM257.456 27.3126V10.6876C257.456 9.70359 256.659 8.90631 255.675 8.90631C254.692 8.90631 253.894 9.70359 253.894 10.6876V27.3126C253.894 28.2965 254.692 29.0938 255.675 29.0938C256.659 29.0938 257.456 28.2965 257.456 27.3126ZM264.106 33.736V4.26416C264.106 3.28019 263.308 2.48291 262.325 2.48291C261.341 2.48291 260.544 3.28019 260.544 4.26416V33.736C260.544 34.7199 261.341 35.5172 262.325 35.5172C263.308 35.5172 264.106 34.7199 264.106 33.736ZM270.757 27.3126V10.6876C270.757 9.70359 269.959 8.90631 268.975 8.90631C267.992 8.90631 267.194 9.70359 267.194 10.6876V27.3126C267.194 28.2965 267.992 29.0938 268.975 29.0938C269.959 29.0938 270.757 28.2965 270.757 27.3126ZM275.625 2.48291C274.642 2.48291 273.844 3.28019 273.844 4.26416V33.736C273.844 34.7199 274.642 35.5172 275.625 35.5172C276.608 35.5172 277.406 34.7199 277.406 33.736V4.26416C277.406 3.28019 276.608 2.48291 275.625 2.48291Z" fill="#D1D5DB"/>
</svg>
