<svg width="67" height="67" viewBox="0 0 67 67" fill="none" xmlns="http://www.w3.org/2000/svg">
<g id="heroicons-mini/share">
<g id="Union">
<path d="M44.7359 20.8206C45.7008 17.2197 49.4021 15.0827 53.003 16.0476C56.6039 17.0124 58.7408 20.7137 57.7759 24.3146C56.8111 27.9155 53.1098 30.0525 49.5089 29.0876C47.6685 28.5945 46.2105 27.3865 45.3536 25.8425L25.4398 29.9175C25.4032 30.2681 25.3386 30.6204 25.2444 30.9717C25.1503 31.3231 25.0301 31.6605 24.8864 31.9825L40.0947 45.4684C41.6088 44.5596 43.4755 44.2425 45.316 44.7356C48.9169 45.7005 51.0539 49.4017 50.089 53.0026C49.1241 56.6035 45.4229 58.7405 41.822 57.7756C38.2211 56.8108 36.0841 53.1095 37.049 49.5086C37.1431 49.1573 37.2633 48.8199 37.4069 48.498L22.1986 35.012C20.6845 35.9207 18.8178 36.2378 16.9774 35.7447C13.3765 34.7798 11.2396 31.0785 12.2044 27.4776C13.1693 23.8767 16.8706 21.7398 20.4715 22.7047C22.312 23.1978 23.77 24.4059 24.6269 25.95L44.5405 21.8749C44.5772 21.5243 44.6418 21.1719 44.7359 20.8206Z" fill="#C7C7C7" style="mix-blend-mode:color-dodge"/>
</g>
</g>
</svg>
