<svg width="24" height="24" viewBox="0 0 24 24" fill="none" xmlns="http://www.w3.org/2000/svg">
<g id="heroicons-mini/speaker-wave">
<g id="Union">
<path d="M11.9999 4.49998C11.9999 4.14092 11.7865 3.81622 11.4569 3.6738C11.1273 3.53139 10.7445 3.59851 10.4831 3.8446L5.64298 8.39998H3.8006C3.4286 8.39998 3.09494 8.62884 2.96098 8.97588C2.59831 9.9154 2.3999 10.9356 2.3999 12C2.3999 13.0644 2.59831 14.0846 2.96098 15.0241C3.09494 15.3711 3.4286 15.6 3.8006 15.6H5.64298L10.4831 20.1554C10.7445 20.4014 11.1273 20.4686 11.4569 20.3262C11.7865 20.1837 11.9999 19.859 11.9999 19.5V4.49998Z" fill="#C0C0C0" style="mix-blend-mode:color-dodge"/>
<path d="M19.1396 6.06031C18.7881 5.70883 18.2183 5.70883 17.8668 6.06031C17.5154 6.41178 17.5154 6.98163 17.8668 7.3331C20.4443 9.91056 20.4443 14.0894 17.8668 16.6669C17.5154 17.0184 17.5154 17.5882 17.8668 17.9397C18.2183 18.2912 18.7881 18.2912 19.1396 17.9397C22.42 14.6593 22.42 9.34071 19.1396 6.06031Z" fill="#C0C0C0" style="mix-blend-mode:color-dodge"/>
<path d="M16.5943 8.60588C16.2428 8.2544 15.673 8.2544 15.3215 8.60588C14.97 8.95735 14.97 9.5272 15.3215 9.87867C16.4931 11.0502 16.4931 12.9497 15.3215 14.1213C14.97 14.4728 14.97 15.0426 15.3215 15.3941C15.673 15.7456 16.2428 15.7456 16.5943 15.3941C18.4688 13.5196 18.4688 10.4804 16.5943 8.60588Z" fill="#C0C0C0" style="mix-blend-mode:color-dodge"/>
</g>
</g>
</svg>
