<svg width="139" height="60" viewBox="0 0 139 60" fill="none" xmlns="http://www.w3.org/2000/svg">
<g clip-path="url(#clip0_1887_2244)">
<path fill-rule="evenodd" clip-rule="evenodd" d="M18.3085 38.3577H18.9472C20.2776 38.3577 20.5705 37.8519 20.5705 36.4682V32.2636L15.4611 23.1091C14.4232 21.2464 14.0773 21.0068 12.7732 21.0068H12.5337V20.2085C13.6782 20.2352 14.7957 20.2883 15.8867 20.2883C17.0044 20.2883 18.1489 20.2352 19.2666 20.2085V21.0068H18.7874C18.2287 21.0068 17.8027 21.1931 17.8027 21.8583C17.8027 22.2309 18.1221 22.9495 18.3883 23.4284L22.3267 30.5338L25.9991 23.5084C26.212 23.1091 26.7176 22.0978 26.7176 21.6189C26.7176 21.1666 26.3983 21.0068 25.6799 21.0068H25.1743V20.2085C26.2653 20.2352 26.9839 20.2883 27.8087 20.2883C28.6869 20.2883 29.5917 20.2352 30.4433 20.2085V21.0068H29.7781C28.6871 21.0068 28.4476 21.3528 27.6226 22.8961L22.9123 31.7046V36.4682C22.9123 38.0384 23.4977 38.3577 24.5356 38.3577H25.0679V39.1562C23.9502 39.1294 22.8057 39.0762 21.6882 39.0762C20.517 39.0762 19.2929 39.1294 18.3085 39.1562V38.3577Z" fill="white"/>
<path fill-rule="evenodd" clip-rule="evenodd" d="M42.1524 20.9805C38.4267 20.9805 34.9139 23.2691 34.9139 29.4431C34.9139 33.7542 37.735 38.4911 42.312 38.4911C47.2352 38.4911 49.4972 34.8719 49.4972 29.9752C49.4972 25.6907 46.8096 20.9805 42.1524 20.9805ZM42.2322 19.8628C47.5281 19.8628 52.1585 24.1472 52.1585 29.6827C52.1585 34.3661 48.5391 39.5024 42.1524 39.5024C36.4043 39.5024 32.2529 35.1644 32.2529 29.8954C32.2529 23.961 36.9897 19.8628 42.2322 19.8628Z" fill="white"/>
<path fill-rule="evenodd" clip-rule="evenodd" d="M60.9142 29.3095C61.3667 29.4693 62.0319 29.4959 62.724 29.4959C65.1189 29.4959 67.0882 28.4049 67.0882 25.6373C67.0882 24.4663 66.2899 21.2197 62.5909 21.2197C61.9521 21.2197 61.4465 21.2729 60.9142 21.3262V29.3095ZM56.3369 38.3577H56.8159C58.0402 38.3577 58.5724 37.9051 58.5724 36.1755V23.1889C58.5724 21.4591 58.0402 21.0068 56.8159 21.0068H56.3369V20.2085C57.2685 20.2352 58.5458 20.2883 59.7433 20.2883C61.5263 20.2883 62.8038 20.2085 63.9746 20.2085C68.6848 20.2085 69.5365 23.9075 69.5365 25.1315C69.5365 28.6178 67.0882 29.6824 65.7576 30.108L69.3234 36.0159C70.7873 38.4109 71.2129 38.5705 73.3685 38.7034V39.2625C72.863 39.2625 72.3839 39.2888 71.8785 39.2888C69.5365 39.2888 68.4453 38.9963 67.0349 36.6811L63.9214 31.5982C63.3094 30.6136 62.9635 30.5605 60.9142 30.5072V35.5368C60.9142 38.0648 61.3667 38.3577 62.4311 38.3577H63.2029V39.1562C62.0319 39.1294 60.9142 39.0762 59.7433 39.0762C58.5458 39.0762 57.2685 39.1294 56.3369 39.1562V38.3577Z" fill="white"/>
<path fill-rule="evenodd" clip-rule="evenodd" d="M77.5195 38.3577H77.9985C79.2228 38.3577 79.7559 37.9051 79.7559 36.1755V23.1889C79.7559 21.4591 79.2228 21.0068 77.9985 21.0068H77.5195V20.2085C78.451 20.2352 79.7281 20.2883 80.925 20.2883C82.0958 20.2883 83.2144 20.2352 84.3852 20.2085V21.0068H83.6134C82.5488 21.0068 82.0976 21.2995 82.0976 23.8277V30.0815L87.9255 23.5882C88.1903 23.2955 89.2026 22.2309 89.2026 21.6987C89.2026 21.2197 88.8297 21.0068 88.3245 21.0068H87.8454V20.2085C88.8298 20.2352 89.9466 20.2883 90.985 20.2883C92.0495 20.2883 93.0862 20.2352 94.1524 20.2085V21.0068H93.6733C92.3683 21.0068 91.9171 21.2464 90.3455 22.8961L85.211 28.2985L92.0756 36.3351C93.567 38.0915 94.3389 38.3577 95.4295 38.3577H95.8285V39.1562C94.9765 39.1294 94.0984 39.0762 93.2464 39.0762C92.3962 39.0762 91.5164 39.1294 90.6661 39.1562C90.5337 38.3844 90.4536 37.985 88.936 36.2553L83.4809 30.0015L82.0976 31.4652V35.5368C82.0976 38.0648 82.5488 38.3577 83.6134 38.3577H84.3852V39.1562C83.2144 39.1294 82.0958 39.0762 80.925 39.0762C79.7281 39.0762 78.451 39.1294 77.5195 39.1562V38.3577Z" fill="white"/>
<path fill-rule="evenodd" clip-rule="evenodd" d="M118.738 39.51C114.481 39.51 110.797 36.8789 110.797 31.1278V17.4556H101.287V42.544H126.376V33.3902C125.622 37.038 122.97 39.51 118.738 39.51Z" fill="white"/>
<path fill-rule="evenodd" clip-rule="evenodd" d="M118.738 34.3737C121.02 34.3737 121.722 32.3674 121.722 30.4051V17.4556H115.882V30.4051C115.882 32.449 116.609 34.3737 118.738 34.3737Z" fill="white"/>
</g>
<defs>
<clipPath id="clip0_1887_2244">
<rect width="115.017" height="25.4025" fill="white" transform="translate(11.9917 17.2988)"/>
</clipPath>
</defs>
</svg>
