<svg width="140" height="60" viewBox="0 0 140 60" fill="none" xmlns="http://www.w3.org/2000/svg">
<g clip-path="url(#clip0_1887_2257)">
<path fill-rule="evenodd" clip-rule="evenodd" d="M18.9808 37.6798C18.7721 37.6798 18.6142 37.6214 18.5327 37.512C18.4766 37.4359 18.4619 37.3407 18.4916 37.2451C18.5821 36.9615 19.0117 36.7514 19.3679 36.6975C27.8302 35.4408 35.2286 34.8333 41.9837 34.8333C45.1524 34.8333 48.2371 34.9701 51.1467 35.2409C51.8961 35.3166 51.9476 35.4443 51.9648 35.4954C51.9819 35.5405 51.9739 35.6023 51.9476 35.6436C51.9018 35.7077 51.8261 35.7433 51.5479 35.7433C51.4447 35.7433 51.3198 35.7392 51.1846 35.7272C48.6942 35.5228 46.0757 35.4203 43.4019 35.4203C36.2034 35.4203 28.2893 36.1522 19.2064 37.6592C19.1262 37.6753 19.0505 37.6798 18.9808 37.6798Z" fill="white"/>
<path fill-rule="evenodd" clip-rule="evenodd" d="M17.5009 39.4376C17.2959 39.4376 17.146 39.3796 17.0681 39.2732C17.0142 39.1959 16.9993 39.1007 17.0315 39.0039C17.1242 38.7263 17.5573 38.5058 17.9192 38.4427C27.2976 36.8756 35.4761 36.1167 42.9291 36.1167C45.4746 36.1167 47.9753 36.2066 50.3613 36.3852C51.138 36.4472 51.177 36.576 51.1965 36.6374C51.2114 36.682 51.1998 36.7416 51.1723 36.7804C51.1255 36.8476 51.0383 36.8842 50.7224 36.8842C50.626 36.8842 50.5174 36.8803 50.3994 36.8732C48.4173 36.7461 46.3556 36.6832 44.2672 36.6832C36.3791 36.6832 27.7054 37.5743 17.7542 39.4118C17.6637 39.4284 17.5778 39.4376 17.5009 39.4376Z" fill="white"/>
<path fill-rule="evenodd" clip-rule="evenodd" d="M17.4585 40.9707C17.2525 40.9707 17.1023 40.9158 17.0222 40.8122C16.9683 40.74 16.951 40.6489 16.9762 40.5555C17.0554 40.2773 17.4904 40.0549 17.8594 39.9884C27.7879 38.2289 36.466 37.3738 44.3942 37.3738C46.6473 37.3738 48.8745 37.445 51.0075 37.5841C51.7875 37.6392 51.8402 37.7621 51.8642 37.8138C51.8835 37.8601 51.8781 37.9242 51.8494 37.9667C51.8115 38.0279 51.7462 38.0778 51.3671 38.0778C51.2766 38.0778 51.1722 38.0733 51.0622 38.0674C49.3212 37.9718 47.5135 37.922 45.6921 37.922C37.349 37.922 28.2049 38.9112 17.7368 40.9422C17.6383 40.9621 17.5456 40.9707 17.4585 40.9707Z" fill="white"/>
<path fill-rule="evenodd" clip-rule="evenodd" d="M15.2981 42.9033C15.1022 42.9033 14.959 42.8494 14.8821 42.7469C14.8295 42.6753 14.8146 42.5838 14.8423 42.4904C14.9247 42.2126 15.3681 41.9778 15.7426 41.8999C26.7569 39.6884 36.3812 38.614 45.1651 38.614C46.6325 38.614 48.0955 38.6433 49.5149 38.7051C50.3212 38.7428 50.367 38.8689 50.3901 38.9277C50.405 38.973 50.3993 39.0367 50.3729 39.0758C50.3373 39.126 50.2892 39.196 49.785 39.196C49.7175 39.196 49.6442 39.1937 49.5688 39.1913C48.5273 39.1563 47.4574 39.1415 46.3899 39.1415C37.2118 39.1415 27.1419 40.3597 15.6051 42.8655C15.4962 42.8901 15.3943 42.9033 15.2981 42.9033Z" fill="white"/>
<path fill-rule="evenodd" clip-rule="evenodd" d="M15.9212 44.2599C15.7218 44.2599 15.5762 44.205 15.5005 44.1049C15.4478 44.0343 15.4342 43.9462 15.4582 43.8557C15.5398 43.575 15.9853 43.3374 16.3679 43.2611C27.6045 40.9923 37.4487 39.8882 46.4617 39.8882C47.9429 39.8882 49.4195 39.922 50.8503 39.9781C51.6682 40.0182 51.7162 40.1402 51.7414 40.1992C51.7587 40.244 51.7518 40.3074 51.7243 40.3493C51.691 40.4014 51.6442 40.4677 51.1275 40.4677C51.06 40.4677 50.9865 40.4671 50.9086 40.4626C49.8501 40.4295 48.7608 40.4093 47.6748 40.4093C38.2722 40.4093 27.9881 41.6591 16.2407 44.221C16.1285 44.2469 16.0196 44.2599 15.9212 44.2599Z" fill="white"/>
<path fill-rule="evenodd" clip-rule="evenodd" d="M18.6982 45.8118C18.5985 45.8118 18.509 45.766 18.4449 45.6871C18.3418 45.5571 18.3153 45.3354 18.3774 45.0809C20.296 36.8591 23.3961 22.7332 25.0548 15.5357C25.2254 14.7833 25.3629 14.7833 25.4374 14.7815C25.4821 14.7815 25.5381 14.8079 25.5657 14.8429C25.592 14.8755 25.6721 14.9751 25.5405 15.596C23.9423 23.0784 20.9778 37.354 19.414 44.9538C19.3291 45.3692 19.0613 45.7306 18.7919 45.8004C18.76 45.8079 18.7279 45.8118 18.6982 45.8118Z" fill="white"/>
<path fill-rule="evenodd" clip-rule="evenodd" d="M20.2123 46.4762C20.1116 46.4762 20.0176 46.4304 19.9535 46.3501C19.848 46.2207 19.8195 46.0047 19.8699 45.7555C21.508 38.2039 24.427 23.9558 26.0158 16.5169C26.1761 15.7705 26.3136 15.7695 26.388 15.7695H26.3891C26.4326 15.7695 26.4877 15.7964 26.5152 15.8308C26.5437 15.8633 26.6264 15.9636 26.5048 16.5708C25.0935 23.7801 22.3638 37.9667 20.9238 45.6233C20.8494 46.0261 20.5778 46.3955 20.3075 46.463C20.2753 46.4699 20.2434 46.4762 20.2123 46.4762Z" fill="white"/>
<path fill-rule="evenodd" clip-rule="evenodd" d="M22.3886 43.896C22.2891 43.896 22.1986 43.8524 22.1311 43.7711C22.0247 43.6399 21.9911 43.424 22.0416 43.1747C23.509 35.7915 26.2561 21.6512 27.7019 14.2621C27.8473 13.5237 27.9814 13.5237 28.0581 13.5237C28.1038 13.5237 28.1577 13.5499 28.1852 13.5833C28.2127 13.6158 28.293 13.7151 28.1852 14.3176C26.8862 21.6036 24.3247 35.6871 23.0715 43.0667C23.0027 43.4708 22.745 43.8225 22.4734 43.8852C22.4449 43.8925 22.4163 43.896 22.3886 43.896Z" fill="white"/>
<path fill-rule="evenodd" clip-rule="evenodd" d="M23.8241 45.1838C23.7189 45.1838 23.6225 45.1374 23.5525 45.0542C23.4461 44.927 23.4105 44.7157 23.4531 44.4769C24.6865 37.6521 27.1954 23.8749 28.6101 15.9294C28.7385 15.1941 28.8807 15.1941 28.9571 15.1941C29.0007 15.1941 29.0546 15.2216 29.0822 15.2553C29.1555 15.3412 29.1612 15.5869 29.0971 15.9782C27.9745 23.0437 25.6182 36.9692 24.5047 44.3561C24.4451 44.7517 24.1839 45.1105 23.9101 45.174C23.8802 45.1803 23.8528 45.1838 23.8241 45.1838Z" fill="white"/>
<path fill-rule="evenodd" clip-rule="evenodd" d="M25.6995 44.0184C25.594 44.0184 25.499 43.972 25.428 43.8906C25.3179 43.76 25.2779 43.5515 25.3167 43.3162C26.3627 36.8485 28.6573 23.3144 29.9744 15.0213C30.0867 14.2964 30.2232 14.2964 30.3044 14.2964C30.3479 14.2964 30.4042 14.3236 30.4315 14.3576C30.5037 14.4453 30.5118 14.6863 30.4557 15.07C29.4441 22.3447 27.2701 36.2283 26.3592 43.2039C26.31 43.5985 26.0521 43.9527 25.7795 44.011C25.7532 44.0155 25.7258 44.0184 25.6995 44.0184Z" fill="white"/>
<path fill-rule="evenodd" clip-rule="evenodd" d="M38.6289 18.4114H40.6404V27.8919H45.4448V29.7115H38.6289V18.4114Z" fill="white"/>
<path fill-rule="evenodd" clip-rule="evenodd" d="M54.35 25.4024L52.6105 20.8055L50.8392 25.4024H54.35ZM51.7964 18.4114H53.5366L58.4046 29.7115H56.1057L55.0526 27.1257H50.1524L49.1309 29.7115H46.8804L51.7964 18.4114Z" fill="white"/>
<path fill-rule="evenodd" clip-rule="evenodd" d="M65.9847 20.8369C65.5541 20.2303 64.7878 19.9435 64.0059 19.9435C63.0802 19.9435 62.1547 20.3582 62.1547 21.3956C62.1547 23.6625 67.517 22.3692 67.517 26.3916C67.517 28.8179 65.6019 29.9989 63.3829 29.9989C61.9785 29.9989 60.6057 29.5677 59.6802 28.4668L61.1968 26.9982C61.6917 27.7484 62.5371 28.1792 63.4309 28.1792C64.3572 28.1792 65.4107 27.6684 65.4107 26.6312C65.4107 24.1567 60.0471 25.5776 60.0471 21.5395C60.0471 19.209 62.1223 18.1238 64.2134 18.1238C65.3944 18.1238 66.5754 18.459 67.4537 19.2889L65.9847 20.8369Z" fill="white"/>
<path fill-rule="evenodd" clip-rule="evenodd" d="M75.7361 20.8369C75.3055 20.2303 74.5386 19.9435 73.7569 19.9435C72.8312 19.9435 71.9054 20.3582 71.9054 21.3956C71.9054 23.6625 77.2684 22.3692 77.2684 26.3916C77.2684 28.8179 75.3533 29.9989 73.1344 29.9989C71.7301 29.9989 70.3575 29.5677 69.4312 28.4668L70.9482 26.9982C71.4427 27.7484 72.2889 28.1792 73.1822 28.1792C74.108 28.1792 75.1616 27.6684 75.1616 26.6312C75.1616 24.1567 69.7987 25.5776 69.7987 21.5395C69.7987 19.209 71.8739 18.1238 73.9648 18.1238C75.1454 18.1238 76.3268 18.459 77.2047 19.2889L75.7361 20.8369Z" fill="white"/>
<path fill-rule="evenodd" clip-rule="evenodd" d="M85.009 28.1795C87.3553 28.1795 88.9035 26.3919 88.9035 23.9819C88.9035 21.7314 87.3553 19.9438 85.009 19.9438C82.6785 19.9438 81.1304 21.7314 81.1304 23.9819C81.1304 26.3919 82.6785 28.1795 85.009 28.1795ZM84.9927 18.1241C88.5207 18.0602 91.0108 20.4222 91.0108 24.0456C91.0108 27.5729 88.5207 29.9349 84.9927 29.9992C81.5132 29.9992 79.0234 27.6366 79.0234 24.1092C79.0234 20.4861 81.5132 18.1241 84.9927 18.1241Z" fill="white"/>
<path fill-rule="evenodd" clip-rule="evenodd" d="M92.8765 18.4114H95.5418L101.016 26.8068L101.049 26.8387H101.016L101.049 26.8068V18.4114H103.059V29.7115H100.506L94.9195 21.0445H94.8874V29.7115H92.8765V18.4114Z" fill="white"/>
<path fill-rule="evenodd" clip-rule="evenodd" d="M109.683 27.8919C112.204 27.8919 114.264 26.8067 114.264 24.0611C114.264 21.3163 112.475 20.2305 110.017 20.2305H108.182V27.8919H109.683ZM106.171 18.4114H110.624C113.593 18.4114 116.371 20.2305 116.371 24.0611C116.371 27.9239 113.098 29.7115 110.385 29.7115H106.171V18.4114Z" fill="white"/>
<path fill-rule="evenodd" clip-rule="evenodd" d="M118.237 18.4114H125.723V20.2305H120.248V23.0081H125.435V24.8274H120.248V27.8919H126.01V29.7115H118.237V18.4114Z" fill="white"/>
<path fill-rule="evenodd" clip-rule="evenodd" d="M56.7303 37.9457C56.8977 38.201 57.1874 38.3187 57.4675 38.3187C57.7769 38.3187 58.1601 38.1227 58.1601 37.739C58.1601 36.9382 56.4457 37.4347 56.4457 36.0782C56.4457 35.6707 56.7895 35.1055 57.6247 35.1055C58.0026 35.1055 58.3667 35.1844 58.6267 35.5033L58.2433 35.8522C58.1257 35.6707 57.8946 35.5479 57.6247 35.5479C57.104 35.5479 56.9461 35.8624 56.9461 36.0782C56.9461 36.9577 58.6611 36.4321 58.6611 37.6855C58.6611 38.3584 58.121 38.7614 57.4526 38.7614C57.0053 38.7614 56.5782 38.6092 56.3418 38.2793L56.7303 37.9457Z" fill="white"/>
<path fill-rule="evenodd" clip-rule="evenodd" d="M62.0249 35.9458C61.8282 35.6905 61.5041 35.5479 61.1846 35.5479C60.4029 35.5479 59.8872 36.1717 59.8872 36.963C59.8872 37.6951 60.3736 38.3187 61.1846 38.3187C61.5825 38.3187 61.8874 38.1418 62.0936 37.8521L62.4915 38.152C62.3884 38.2947 61.9708 38.7614 61.1744 38.7614C60.0693 38.7614 59.3862 37.8377 59.3862 36.963C59.3862 35.8821 60.1279 35.1055 61.1992 35.1055C61.6563 35.1055 62.1382 35.2774 62.4177 35.6459L62.0249 35.9458Z" fill="white"/>
<path fill-rule="evenodd" clip-rule="evenodd" d="M63.3047 35.1938H63.7758V36.6383H65.5794V35.1938H66.0509V38.6728H65.5794V37.0807H63.7758V38.6728H63.3047V35.1938Z" fill="white"/>
<path fill-rule="evenodd" clip-rule="evenodd" d="M70.0964 36.9337C70.0964 36.1717 69.5801 35.5479 68.7842 35.5479C67.9884 35.5479 67.4722 36.1717 67.4722 36.9337C67.4722 37.6951 67.9884 38.3187 68.7842 38.3187C69.5801 38.3187 70.0964 37.6951 70.0964 36.9337ZM66.9712 36.9337C66.9712 35.9018 67.7232 35.1055 68.7842 35.1055C69.8454 35.1055 70.5974 35.9018 70.5974 36.9337C70.5974 37.965 69.8454 38.7614 68.7842 38.7614C67.7232 38.7614 66.9712 37.965 66.9712 36.9337Z" fill="white"/>
<path fill-rule="evenodd" clip-rule="evenodd" d="M74.4265 36.9337C74.4265 36.1717 73.9102 35.5479 73.1145 35.5479C72.3185 35.5479 71.8023 36.1717 71.8023 36.9337C71.8023 37.6951 72.3185 38.3187 73.1145 38.3187C73.9102 38.3187 74.4265 37.6951 74.4265 36.9337ZM71.3013 36.9337C71.3013 35.9018 72.0533 35.1055 73.1145 35.1055C74.1755 35.1055 74.9275 35.9018 74.9275 36.9337C74.9275 37.965 74.1755 38.7614 73.1145 38.7614C72.0533 38.7614 71.3013 37.965 71.3013 36.9337Z" fill="white"/>
<path fill-rule="evenodd" clip-rule="evenodd" d="M75.8477 35.1938H76.3185V38.2304H77.9157V38.6728H75.8477V35.1938Z" fill="white"/>
<path fill-rule="evenodd" clip-rule="evenodd" d="M83.7492 36.9337C83.7492 36.1717 83.2336 35.5479 82.4372 35.5479C81.6409 35.5479 81.125 36.1717 81.125 36.9337C81.125 37.6951 81.6409 38.3187 82.4372 38.3187C83.2336 38.3187 83.7492 37.6951 83.7492 36.9337ZM80.624 36.9337C80.624 35.9018 81.376 35.1055 82.4372 35.1055C83.4982 35.1055 84.25 35.9018 84.25 36.9337C84.25 37.965 83.4982 38.7614 82.4372 38.7614C81.376 38.7614 80.624 37.965 80.624 36.9337Z" fill="white"/>
<path fill-rule="evenodd" clip-rule="evenodd" d="M85.1694 35.1938H87.3561V35.6363H85.6418V36.7268H87.2383V37.169H85.6418V38.6728H85.1694V35.1938Z" fill="white"/>
<path fill-rule="evenodd" clip-rule="evenodd" d="M90.2373 35.1938H92.4826V35.6363H90.7086V36.6726H92.3599V37.1149H90.7086V38.2304H92.571V38.6728H90.2373V35.1938Z" fill="white"/>
<path fill-rule="evenodd" clip-rule="evenodd" d="M93.4814 35.1938H94.1008L96.017 38.0534H96.0265V35.1938H96.4982V38.6728H95.8986L93.9635 35.8132H93.9534V38.6728H93.4814V35.1938Z" fill="white"/>
<path fill-rule="evenodd" clip-rule="evenodd" d="M100.598 36.7269V38.4416C100.258 38.6479 99.7032 38.7614 99.2803 38.7614C98.1009 38.7614 97.4185 37.9211 97.4185 36.9337C97.4185 35.9018 98.1703 35.1055 99.2315 35.1055C99.8706 35.1055 100.258 35.2774 100.529 35.5574L100.194 35.9165C99.9094 35.6415 99.5803 35.5479 99.2315 35.5479C98.4357 35.5479 97.9195 36.1717 97.9195 36.9337C97.9195 37.7199 98.5045 38.3187 99.2707 38.3187C99.5998 38.3187 99.9143 38.2553 100.126 38.1375V37.1691H99.3541V36.7269H100.598Z" fill="white"/>
<path fill-rule="evenodd" clip-rule="evenodd" d="M101.7 38.6728H102.171V35.1938H101.7V38.6728Z" fill="white"/>
<path fill-rule="evenodd" clip-rule="evenodd" d="M103.31 35.1938H103.929L105.846 38.0534H105.855V35.1938H106.327V38.6728H105.728L103.792 35.8132H103.782V38.6728H103.31V35.1938Z" fill="white"/>
<path fill-rule="evenodd" clip-rule="evenodd" d="M107.463 35.1938H109.709V35.6363H107.935V36.6726H109.586V37.1149H107.935V38.2304H109.798V38.6728H107.463V35.1938Z" fill="white"/>
<path fill-rule="evenodd" clip-rule="evenodd" d="M110.708 35.1938H112.954V35.6363H111.181V36.6726H112.831V37.1149H111.181V38.2304H113.043V38.6728H110.708V35.1938Z" fill="white"/>
<path fill-rule="evenodd" clip-rule="evenodd" d="M114.425 36.7268H115.044C115.417 36.7268 115.79 36.6383 115.79 36.1666C115.79 35.6948 115.417 35.607 115.044 35.607H114.425V36.7268ZM113.953 35.1938H115.177C116.066 35.1938 116.292 35.7292 116.292 36.1666C116.292 36.609 115.963 37.0266 115.437 37.0858L116.424 38.6728H115.835L114.951 37.1397H114.425V38.6728H113.953V35.1938Z" fill="white"/>
<path fill-rule="evenodd" clip-rule="evenodd" d="M117.198 38.6728H117.67V35.1938H117.198V38.6728Z" fill="white"/>
<path fill-rule="evenodd" clip-rule="evenodd" d="M118.809 35.1938H119.428L121.344 38.0534H121.354V35.1938H121.825V38.6728H121.226L119.29 35.8132H119.28V38.6728H118.809V35.1938Z" fill="white"/>
<path fill-rule="evenodd" clip-rule="evenodd" d="M125.925 36.7269V38.4416C125.585 38.6479 125.03 38.7614 124.607 38.7614C123.428 38.7614 122.746 37.9211 122.746 36.9337C122.746 35.9018 123.497 35.1055 124.558 35.1055C125.198 35.1055 125.585 35.2774 125.856 35.5574L125.522 35.9165C125.236 35.6415 124.907 35.5479 124.558 35.5479C123.763 35.5479 123.246 36.1717 123.246 36.9337C123.246 37.7199 123.831 38.3187 124.598 38.3187C124.927 38.3187 125.241 38.2553 125.453 38.1375V37.1691H124.681V36.7269H125.925Z" fill="white"/>
</g>
<defs>
<clipPath id="clip0_1887_2257">
<rect width="111.215" height="32.9525" fill="white" transform="translate(14.8286 13.5237)"/>
</clipPath>
</defs>
</svg>
