<svg width="64" height="64" viewBox="0 0 64 64" fill="none" xmlns="http://www.w3.org/2000/svg">
<g id="heroicons-mini/arrow-up-tray" opacity="0.78">
<g id="Union">
<path d="M29.6 42.3999C29.6 43.7254 30.6745 44.7999 32 44.7999C33.3255 44.7999 34.4 43.7254 34.4 42.3999L34.4 14.8364L43.8552 24.8478C44.7653 25.8114 46.2843 25.8548 47.2479 24.9447C48.2116 24.0346 48.255 22.5156 47.3448 21.552L33.7449 7.152C33.2915 6.67195 32.6603 6.3999 32 6.3999C31.3397 6.3999 30.7086 6.67195 30.2552 7.152L16.6552 21.552C15.7451 22.5156 15.7885 24.0346 16.7521 24.9447C17.7158 25.8548 19.2347 25.8114 20.1448 24.8478L29.6 14.8364L29.6 42.3999Z" fill="#E71561"/>
<path d="M11.2 40.7999C11.2 39.4744 10.1255 38.3999 8.80002 38.3999C7.47454 38.3999 6.40002 39.4744 6.40002 40.7999V48.7999C6.40002 53.66 10.3399 57.5999 15.2 57.5999H48.8C53.6601 57.5999 57.6 53.66 57.6 48.7999V40.7999C57.6 39.4744 56.5255 38.3999 55.2 38.3999C53.8745 38.3999 52.8 39.4744 52.8 40.7999V48.7999C52.8 51.009 51.0092 52.7999 48.8 52.7999H15.2C12.9909 52.7999 11.2 51.009 11.2 48.7999V40.7999Z" fill="#E71561"/>
</g>
</g>
</svg>
