<svg width="24" height="24" viewBox="0 0 24 24" fill="none" xmlns="http://www.w3.org/2000/svg">
<g id="heroicons-mini/arrow-down-tray">
<g id="Union">
<path d="M12.8999 3.29999C12.8999 2.80294 12.497 2.39999 11.9999 2.39999C11.5028 2.39999 11.0999 2.80294 11.0999 3.29999V13.6363L7.55422 9.88203C7.21293 9.52067 6.64331 9.50439 6.28194 9.84568C5.92058 10.187 5.9043 10.7566 6.24559 11.118L11.3456 16.518C11.5156 16.698 11.7523 16.8 11.9999 16.8C12.2475 16.8 12.4842 16.698 12.6542 16.518L17.7542 11.118C18.0955 10.7566 18.0792 10.187 17.7179 9.84568C17.3565 9.50439 16.7869 9.52067 16.4456 9.88203L12.8999 13.6363V3.29999Z" fill="white"/>
<path d="M4.1999 15.3C4.1999 14.8029 3.79696 14.4 3.2999 14.4C2.80285 14.4 2.3999 14.8029 2.3999 15.3V18.3C2.3999 20.1225 3.87736 21.6 5.6999 21.6H18.2999C20.1224 21.6 21.5999 20.1225 21.5999 18.3V15.3C21.5999 14.8029 21.197 14.4 20.6999 14.4C20.2028 14.4 19.7999 14.8029 19.7999 15.3V18.3C19.7999 19.1284 19.1283 19.8 18.2999 19.8H5.6999C4.87148 19.8 4.1999 19.1284 4.1999 18.3V15.3Z" fill="white"/>
</g>
</g>
</svg>
