<svg width="24" height="24" viewBox="0 0 24 24" fill="none" xmlns="http://www.w3.org/2000/svg">
<g id="heroicons-mini/chat-bubble-oval-left">
<g id="Union (Stroke)">
<path fill-rule="evenodd" clip-rule="evenodd" d="M2.3999 12C2.3999 7.24006 6.82797 3.59998 11.9999 3.59998C17.1718 3.59998 21.5999 7.24006 21.5999 12C21.5999 16.7599 17.1718 20.4 11.9999 20.4C11.3838 20.4 10.7805 20.3492 10.1953 20.2519C9.01403 21.1001 7.56434 21.6 5.9999 21.6C5.82274 21.6 5.64692 21.5936 5.47268 21.5809C5.15856 21.5582 4.87919 21.3728 4.73607 21.0923C4.59294 20.8117 4.60688 20.4768 4.77281 20.2091C5.15361 19.5948 5.38036 18.8753 5.39869 18.1018C3.57409 16.5903 2.3999 14.4293 2.3999 12Z" fill="#C9C9C9" style="mix-blend-mode:color-dodge"/>
</g>
</g>
</svg>
