<svg width="140" height="60" viewBox="0 0 140 60" fill="none" xmlns="http://www.w3.org/2000/svg">
<g clip-path="url(#clip0_1887_2307)">
<path d="M39.0068 25.139H41.5147L43.7138 32.2987L46.0993 25.1084H48.1019L50.4858 32.2987L52.6869 25.139H55.1317L51.5018 35.789H49.4696L47.0723 28.8714L44.6712 35.789H42.637L39.0068 25.139Z" fill="white"/>
<path d="M61.2947 31.3613L59.8841 27.9329L58.4722 31.3613H61.2947ZM58.8341 25.1372H60.9913L65.5435 35.7893H63.101L62.1294 33.4156H57.6354L56.663 35.7893H54.2783L58.8341 25.1372Z" fill="white"/>
<path d="M68.0933 27.3585H64.8594V25.2141H73.6668V27.3585H70.4348V35.7893H68.0933V27.3585Z" fill="white"/>
<path d="M75.4448 25.2141H83.4622V27.2807H77.7679V29.4276H82.7798V31.4997H77.7679V33.7192H83.5364V35.7893H75.4448V25.2141Z" fill="white"/>
<path d="M90.7594 30.3512C91.8999 30.3512 92.5526 29.7464 92.5526 28.8557V28.8252C92.5526 27.8278 91.8517 27.3141 90.7136 27.3141H88.3918V30.3512H90.7594ZM86.0522 25.2141H90.9131C92.2626 25.2141 93.3098 25.5909 94.0089 26.2875C94.315 26.6082 94.5534 26.9872 94.7099 27.402C94.8665 27.8167 94.938 28.2587 94.9202 28.7017V28.7337C94.9534 29.4545 94.7485 30.1662 94.337 30.7589C93.9255 31.3516 93.3304 31.7924 92.6434 32.0131L95.2372 35.7894H92.5038L90.2271 32.4048H88.3918V35.7894H86.0522V25.2141Z" fill="white"/>
<path d="M97.5 25.2141H99.8374V33.6746H104.813V35.7893H97.5V25.2141Z" fill="white"/>
<path d="M114.026 30.5315V30.4998C114.04 30.0686 113.967 29.639 113.811 29.2366C113.656 28.8342 113.421 28.4671 113.121 28.1572C112.821 27.8472 112.461 27.6008 112.064 27.4324C111.667 27.2639 111.24 27.1771 110.809 27.1768C108.925 27.1768 107.62 28.6583 107.62 30.4712V30.4998C107.606 30.9314 107.679 31.3614 107.834 31.7643C107.99 32.1672 108.224 32.5347 108.525 32.845C108.825 33.1553 109.185 33.4021 109.582 33.5706C109.98 33.7392 110.407 33.8261 110.839 33.8262C112.72 33.8262 114.026 32.3462 114.026 30.5315ZM105.173 30.5315V30.4998C105.173 27.4963 107.557 25.0308 110.839 25.0308C114.117 25.0308 116.472 27.4646 116.472 30.4712V30.4998C116.472 33.5086 114.087 35.9704 110.809 35.9704C107.53 35.9704 105.173 33.5378 105.173 30.5315Z" fill="white"/>
<path d="M125.98 30.5315V30.4998C125.993 30.0684 125.92 29.6387 125.765 29.2362C125.609 28.8337 125.374 28.4666 125.073 28.1566C124.773 27.8467 124.414 27.6002 124.016 27.4319C123.619 27.2636 123.192 27.1769 122.76 27.1768C120.879 27.1768 119.572 28.6583 119.572 30.4712V30.4998C119.558 30.9312 119.631 31.361 119.786 31.7637C119.942 32.1664 120.176 32.5337 120.476 32.844C120.776 33.1543 121.136 33.4011 121.533 33.5698C121.93 33.7385 122.357 33.8257 122.789 33.8262C124.672 33.8262 125.98 32.3462 125.98 30.5315ZM117.127 30.5315V30.4998C117.127 27.4963 119.51 25.0308 122.789 25.0308C126.07 25.0308 128.423 27.4646 128.423 30.4712V30.4998C128.423 33.5086 126.04 35.9704 122.76 35.9704C119.48 35.9704 117.127 33.5378 117.127 30.5315Z" fill="white"/>
<path d="M44.9399 19.8626V17.0781H46.0176V19.8346C46.0176 20.6279 46.4163 21.0386 47.0737 21.0386C47.7311 21.0386 48.1301 20.6419 48.1301 19.8694V17.0781H49.2076V19.8271C49.2076 21.303 48.3749 22.0273 47.06 22.0273C45.7446 22.0273 44.9399 21.2962 44.9399 19.8626Z" fill="white"/>
<path d="M52.0723 17.0781H53.0659L55.3607 20.0785V17.0781H56.4239V21.9508H55.5071L53.1355 18.8533V21.9508H52.0723V17.0781Z" fill="white"/>
<path d="M59.4873 17.0781H60.565V21.9508H59.4873V17.0781Z" fill="white"/>
<path d="M63.209 17.0781H64.3977L65.6786 20.5097L66.9591 17.0781H68.1195L66.1406 21.9853H65.1889L63.209 17.0781Z" fill="white"/>
<path d="M70.7144 17.0781H74.4088V18.032H71.7855V19.0201H74.0937V19.9736H71.7855V20.9975H74.443V21.9508H70.7144V17.0781Z" fill="white"/>
<path d="M77.2422 17.0781H79.4809C79.7397 17.0617 79.9991 17.097 80.2441 17.1819C80.4891 17.2669 80.7146 17.3997 80.9077 17.5728C81.0488 17.7207 81.1586 17.8955 81.2307 18.0867C81.3028 18.278 81.3357 18.4818 81.3274 18.686V18.7C81.3425 19.032 81.2479 19.3598 81.0583 19.6328C80.8686 19.9057 80.5944 20.1087 80.278 20.2104L81.4745 21.9508H80.2148L79.1664 20.3912H78.3196V21.9508H77.2422V17.0781ZM79.4109 19.4448C79.9348 19.4448 80.2363 19.1663 80.2363 18.7554V18.7417C80.2363 18.2821 79.9143 18.0454 79.3895 18.0454H78.3196V19.4448H79.4109Z" fill="white"/>
<path d="M83.8037 21.2403L84.4402 20.4821C84.8404 20.8489 85.3595 21.0589 85.9022 21.0735C86.343 21.0735 86.6087 20.8993 86.6087 20.614V20.6C86.6087 20.3285 86.4407 20.1894 85.6228 19.9803C84.6365 19.7299 83.9994 19.4583 83.9994 18.4907V18.477C83.9994 17.5931 84.7134 17.0079 85.7133 17.0079C86.373 16.9972 87.0159 17.2163 87.5317 17.6277L86.9721 18.4353C86.606 18.1507 86.1625 17.9833 85.6996 17.955C85.2868 17.955 85.0693 18.1426 85.0693 18.3796V18.3933C85.0693 18.7138 85.2799 18.8177 86.1268 19.0336C87.1198 19.2912 87.6792 19.6465 87.6792 20.4955V20.5095C87.6792 21.4771 86.9378 22.0203 85.881 22.0203C85.1165 22.0232 84.3774 21.7457 83.8037 21.2403Z" fill="white"/>
<path d="M90.5059 17.0781H91.5826V21.9508H90.5059V17.0781Z" fill="white"/>
<path d="M95.7871 18.0669H94.2969V17.0781H98.3547V18.0669H96.8639V21.9508H95.7871V18.0669Z" fill="white"/>
<path d="M102.398 20.0293L100.516 17.0781H101.775L102.944 19.0338L104.132 17.0781H105.357L103.475 20.0085V21.9508H102.398V20.0293Z" fill="white"/>
<path d="M111.478 19.5284V19.5148C111.5 18.8402 111.783 18.2004 112.267 17.7302C112.751 17.2601 113.399 16.9962 114.074 16.9944C114.749 16.9925 115.398 17.2528 115.885 17.7203C116.372 18.1878 116.658 18.826 116.683 19.5005V19.5148C116.661 20.1892 116.378 20.8288 115.894 21.2988C115.41 21.7688 114.762 22.0324 114.087 22.0342C113.412 22.036 112.763 21.7757 112.277 21.3083C111.79 20.8409 111.504 20.2028 111.478 19.5284ZM115.556 19.5284V19.5148C115.563 19.316 115.529 19.118 115.458 18.9324C115.386 18.7469 115.278 18.5777 115.139 18.4348C115.001 18.292 114.835 18.1784 114.652 18.1009C114.469 18.0233 114.272 17.9834 114.073 17.9835C113.876 17.9821 113.68 18.0208 113.498 18.0971C113.316 18.1735 113.152 18.286 113.014 18.4278C112.877 18.5696 112.77 18.7377 112.699 18.9221C112.629 19.1065 112.597 19.3032 112.604 19.5005V19.5148C112.598 19.7135 112.632 19.9115 112.703 20.097C112.775 20.2825 112.883 20.4517 113.022 20.5946C113.16 20.7374 113.326 20.851 113.509 20.9285C113.692 21.0061 113.889 21.046 114.088 21.046C114.285 21.0473 114.481 21.0085 114.663 20.9321C114.845 20.8556 115.009 20.7431 115.146 20.6012C115.284 20.4594 115.391 20.2912 115.461 20.1068C115.532 19.9224 115.564 19.7257 115.556 19.5284Z" fill="white"/>
<path d="M118.997 17.0781H122.726V18.0525H120.074V19.0898H122.411V20.0642H120.074V21.9508H118.997V17.0781Z" fill="white"/>
<path d="M17.555 21.0775C16.4401 20.842 15.4478 20.0173 15.6872 18.9707C15.6895 18.9607 15.6444 18.7003 15.5483 18.6646C15.5406 18.6614 15.5248 18.6322 15.5085 18.6279C15.4675 18.6168 15.4289 18.598 15.3949 18.5725C15.3825 18.5631 15.3304 18.5463 15.3304 18.5277C15.3105 18.5706 15.3145 18.6104 15.2846 18.6484C15.2735 18.6657 15.2592 18.6807 15.2425 18.6926C15.2223 18.7031 15.2209 18.7215 15.2053 18.7352C15.1218 18.8189 15.1664 18.9452 15.1793 19.0413C15.1831 19.0656 15.1935 19.0951 15.1638 19.1001C15.128 19.1066 15.1568 19.0908 15.1156 19.0656C15.1058 19.0594 15.0915 19.0441 15.081 19.0391C15.0636 19.0307 14.9939 19.0211 14.9826 19.0043C14.9698 18.9863 14.9752 18.9803 14.9586 18.9654C14.9195 18.9309 14.9161 18.8624 14.888 18.7912C14.8801 18.7623 14.8747 18.7329 14.8716 18.7031C14.8716 18.6322 14.6898 18.5183 14.7604 18.5765C14.7845 18.5967 14.7562 18.5479 14.6593 18.5239C14.5929 18.5107 14.5246 18.5094 14.4577 18.5202C14.4437 18.5245 14.4307 18.5319 14.4198 18.5417C14.3585 18.6061 14.2785 18.6495 14.1911 18.6658C14.2065 18.6559 14.2146 18.6745 14.2214 18.6826C14.2654 18.7389 14.2336 18.8083 14.2594 18.8705C14.2872 18.9297 14.3294 18.9811 14.3821 19.0198C14.433 19.0594 14.5213 19.0074 14.5604 19.0765C14.5604 19.074 14.6434 19.0954 14.5618 19.177C14.4118 19.3272 14.2452 19.2059 14.1211 19.4846C14.309 19.4044 14.3301 19.6894 14.4099 19.6999C14.5783 19.6965 14.7445 19.7388 14.8907 19.8223C15.0369 19.9059 15.1577 20.0276 15.2402 20.1744C15.3606 20.3956 15.0243 20.4062 15.3285 20.4578C15.3961 20.4682 15.4609 20.4925 15.5186 20.5291C15.5764 20.5658 15.626 20.6139 15.6643 20.6706C15.7464 20.7851 15.7577 20.9382 15.8451 21.0452C15.8936 21.1034 15.9489 21.1556 16.0097 21.2007C16.0682 21.2325 16.1311 21.2554 16.1963 21.2686C16.2377 21.2798 16.2626 21.3003 16.3023 21.3146C16.3459 21.3274 16.387 21.3473 16.4239 21.3737C16.4538 21.3986 16.53 21.4244 16.5474 21.459C16.5787 21.5199 16.5538 21.5818 16.5868 21.6431C16.5969 21.66 16.6442 21.645 16.6641 21.6512C16.6877 21.6578 16.7123 21.6601 16.7367 21.6581C16.7844 21.6456 16.8329 21.6363 16.8819 21.6304C16.9648 21.6207 16.9553 21.6469 17.0628 21.6416C17.0857 21.6416 17.0949 21.6581 17.1258 21.6581C17.1467 21.6581 17.1829 21.6805 17.1888 21.6615C17.2255 21.5563 17.2747 21.456 17.3353 21.3625C17.3741 21.2889 17.4179 21.218 17.4663 21.1503C17.4573 21.1535 17.5643 21.0788 17.555 21.0775Z" fill="white"/>
<path d="M14.7734 21.2069C15.0997 21.382 15.0557 21.8139 15.3498 21.9535C15.8735 22.2015 16.4985 22.372 17.0552 22.1001C16.9314 22.4852 17.0683 22.8075 17.0141 22.8508C16.8393 22.9905 16.3079 22.8243 15.9676 22.6902C15.733 22.5975 15.5429 22.9438 15.2842 22.9136C15.3092 22.8593 15.3178 22.7989 15.3091 22.7397C15.2685 22.614 15.2358 22.5779 15.0263 22.6022C14.8911 22.6172 14.9471 22.7282 14.7447 22.8271C14.6648 22.7795 14.4935 22.7263 14.4685 22.8778C14.457 22.9482 14.3145 22.6321 14.3431 22.5795C14.4756 22.3427 14.5027 22.2874 14.4933 22.2363C14.4775 22.1586 14.1905 22.0531 14.1532 22.1191C14.0639 22.2743 13.8005 21.6166 14.5783 21.6583C14.3689 21.5245 14.3932 21.5015 14.4419 21.3422C14.4481 21.3204 14.3697 21.238 14.3163 21.2949C14.3122 21.2814 14.3107 21.2671 14.3122 21.253C14.3136 21.2389 14.3178 21.2252 14.3245 21.2128C14.3313 21.2003 14.3405 21.1893 14.3515 21.1804C14.3626 21.1716 14.3753 21.165 14.389 21.1611C14.5186 21.1324 14.6541 21.1485 14.7734 21.2069Z" fill="white"/>
<path d="M16.3213 19.612C16.7934 19.7203 17.4991 19.1142 17.909 19.8288C17.6065 19.719 16.7117 20.1957 16.3213 19.612Z" fill="white"/>
<path d="M20.269 20.651C20.2598 21.2633 19.6228 21.9241 20.1394 22.5068C19.9216 22.5054 19.7094 22.4375 19.5312 22.3123C19.4492 22.2458 19.4673 22.6039 19.4781 22.6776C19.488 22.7404 19.0857 22.3005 18.935 22.4078C18.5928 22.7118 18.1477 22.8742 17.6902 22.8621C17.5141 22.8683 17.4223 23.0092 17.3724 23.1623C17.2287 22.8705 17.3355 22.2059 17.418 21.911C17.6421 21.1015 18.4589 20.8613 19.1145 20.4746C19.335 20.3291 19.5118 20.1262 19.6259 19.8879C19.74 19.6496 19.7871 19.3847 19.7622 19.1216C20.0957 19.5613 20.2739 20.0992 20.269 20.651Z" fill="white"/>
<path d="M17.2695 27.5434C17.3495 27.5614 17.29 27.6271 17.2588 27.647C17.1971 27.6887 17.1454 27.7435 17.1073 27.8075C17.09 27.83 17.0774 27.8557 17.0703 27.8831C17.0632 27.9105 17.0616 27.9391 17.0657 27.9671C17.0746 28.0092 17.0879 28.0503 17.1053 28.0897C17.1158 28.1143 17.1386 28.128 17.1572 28.1485C17.1705 28.1632 17.1828 28.1788 17.1941 28.1952C17.1763 28.1336 17.2641 28.0714 17.2845 28.0829C17.6905 28.3174 17.7139 27.8427 17.9572 27.6812C17.9903 27.6621 18.0285 27.6534 18.0666 27.6563C18.1047 27.6592 18.1411 27.6735 18.1709 27.6974C18.2008 27.7213 18.2227 27.7537 18.2338 27.7903C18.245 27.8269 18.2448 27.8659 18.2334 27.9024C18.4759 27.7736 18.5472 27.4491 18.7363 27.2457C19.1834 26.813 19.7132 26.475 20.294 26.2517C20.059 26.0613 19.8425 25.8493 19.6474 25.6182C19.5735 25.4978 19.4848 25.2617 19.6488 25.3053C19.7751 25.3506 19.9104 25.3655 20.0435 25.3488C20.1767 25.332 20.3041 25.2841 20.4153 25.2089C20.5264 25.1337 20.6183 25.0333 20.6834 24.916C20.7486 24.7986 20.7851 24.6675 20.7901 24.5334C21.8007 24.6631 22.0637 23.7124 22.2003 22.9937C22.2661 22.645 22.4581 22.6148 22.2484 22.0205C22.1613 21.7723 22.697 21.6908 22.6059 21.2618C22.586 21.202 22.5521 21.1478 22.5068 21.104C22.4615 21.0602 22.4064 21.0279 22.3459 21.01C22.4288 21.2412 22.0398 21.2997 21.9973 21.394C21.9156 21.5238 21.8565 21.6666 21.8223 21.8161C21.4929 21.3629 21.7599 20.8165 22.069 20.3919C22.5203 19.7734 23.4558 20.0985 23.8497 20.4974C23.8309 20.2776 23.7324 20.0722 23.5728 19.9199C23.9412 19.8726 24.3406 20.0963 24.8432 19.8312C25.1537 19.7216 25.4108 19.4979 25.5624 19.2056C24.9454 19.2899 24.1096 18.8173 23.5538 18.7209C22.5177 18.542 21.8223 19.2454 21.4515 20.0842C21.0824 20.9217 21.3191 21.547 21.7196 22.173C21.8203 22.331 21.3639 22.2271 21.1839 22.3198C21.1007 22.3692 21.0355 22.4442 20.9982 22.5335C20.9609 22.6228 20.9534 22.7218 20.9767 22.8157C21.0494 22.7613 21.1345 22.7258 21.2243 22.7125C21.3142 22.6992 21.4059 22.7086 21.4912 22.7397C21.5765 22.7708 21.6528 22.8227 21.713 22.8907C21.7732 22.9586 21.8155 23.0406 21.836 23.129C21.9083 23.6744 21.3561 24.4678 20.8222 24.2301C20.2511 23.975 19.9275 23.3751 19.7376 22.7006C19.2497 23.1191 18.3467 22.7734 17.9274 23.1822C17.5287 23.5708 18.549 23.8343 18.9461 24.0173C19.0271 24.0478 19.0965 24.1029 19.1447 24.1748C19.1929 24.2467 19.2174 24.3318 19.2149 24.4183C19.0862 24.3307 18.936 24.28 18.7806 24.2716C18.6252 24.2632 18.4704 24.2974 18.333 24.3705C18.1956 24.4436 18.0808 24.5528 18.0009 24.6864C17.9211 24.82 17.8792 24.9729 17.8799 25.1286C17.9081 25.6232 18.5158 25.9306 19.0223 25.9723C19.2331 25.9891 19.3602 26.223 19.1037 26.3823C18.6538 26.6623 18.1525 26.9744 17.6677 26.4688C17.5942 26.4305 17.5089 26.4218 17.4291 26.4444C17.3494 26.4671 17.2814 26.5195 17.239 26.5908C17.2109 26.6761 17.2023 26.7667 17.2138 26.8558C17.2398 26.8098 17.2706 26.7445 17.3117 26.7501C17.3593 26.7563 17.4176 26.8061 17.4111 26.8415C17.3692 27.0895 17.0419 26.9287 16.9405 27.1218C16.9382 27.1262 16.9329 27.1299 16.9304 27.1346C16.9242 27.1502 16.9155 27.1638 16.9083 27.1782C16.8419 27.3095 16.7508 27.3919 16.9141 27.4939C16.9099 27.47 16.995 27.5985 16.9933 27.6209C16.996 27.5881 17.0114 27.5576 17.036 27.5359C17.0607 27.5141 17.0928 27.5026 17.1256 27.5039L17.1975 27.5114L17.2695 27.5434Z" fill="white"/>
<path d="M15.1635 25.2143C15.0968 25.2009 15.0275 25.2127 14.9689 25.2473C14.9284 25.265 14.8796 25.246 14.8547 25.2871C14.8466 25.2987 14.8409 25.3118 14.8382 25.3257C14.8355 25.3396 14.8357 25.3539 14.8388 25.3677C14.8429 25.3826 14.8494 25.4109 14.8622 25.4196C14.7743 25.4041 14.6936 25.3612 14.6316 25.2971C14.6103 25.2781 14.5974 25.2569 14.577 25.2361C14.564 25.2224 14.5655 25.1975 14.5568 25.1789C14.5506 25.1585 14.5487 25.1371 14.5512 25.116C14.5444 25.0575 14.5522 24.9981 14.5739 24.9433C14.5851 24.9179 14.5994 24.894 14.6164 24.8721C14.6297 24.8553 14.6443 24.8396 14.6601 24.8251C14.702 24.7832 14.7535 24.752 14.8101 24.7343C14.895 24.7097 14.9858 24.716 15.0666 24.752C15.1347 24.7709 15.204 24.785 15.2741 24.7943C15.3102 24.8046 15.3774 24.7013 15.3287 24.6895C15.1163 24.6381 15.1174 24.5809 15.0379 24.3675C15.0009 24.3255 14.9522 24.3734 14.9314 24.3955C14.9305 23.9857 15.4186 23.9587 15.623 24.1211C15.9251 24.3631 15.698 24.836 16.0694 24.9667C16.2567 25.0549 16.4706 25.0681 16.6672 25.0037C17.0259 24.8515 16.6682 24.4931 16.7838 24.1895C17.0178 23.5776 17.5365 23.5455 18.1543 24.1354C18.0229 24.1848 17.9036 24.2621 17.8047 24.3618C17.7058 24.4616 17.6297 24.5815 17.5814 24.7135C17.5331 24.8454 17.5139 24.9862 17.5251 25.1262C17.5362 25.2662 17.5775 25.4022 17.646 25.5248C17.1586 25.3344 16.5442 25.6552 16.2016 25.8726C16.5199 25.5553 16.0727 25.2989 15.9599 25.3556L15.824 25.4495C15.759 25.5317 15.754 25.6163 15.6737 25.6947C15.639 25.7305 15.5937 25.7541 15.5444 25.7619C15.5105 25.7737 15.4741 25.7768 15.4387 25.771C15.4032 25.7653 15.3697 25.7508 15.3413 25.7289C15.3282 25.7208 15.2843 25.7395 15.2762 25.75C15.2372 25.7979 15.2748 25.821 15.2741 25.839C15.2661 25.8331 15.2156 25.7924 15.2083 25.7868C15.1594 25.7577 15.1161 25.7199 15.0807 25.6754C15.0628 25.6399 15.0521 25.6012 15.0494 25.5616C15.0467 25.5219 15.052 25.4821 15.065 25.4446C15.0969 25.3805 15.1618 25.3602 15.205 25.3164C15.2461 25.2753 15.1971 25.2124 15.1479 25.205" fill="white"/>
<path d="M27.026 19.809C27.0698 19.837 27.0227 19.916 26.9723 19.9304C26.913 19.9465 26.8298 19.9217 26.778 19.9419C26.5454 20.0268 26.545 20.5955 26.5767 20.5296C26.6117 20.4571 26.7833 20.5044 26.8941 20.5262C27.0734 20.5625 27.2092 20.2001 27.3271 20.2101C27.6062 20.2353 27.8674 20.5806 27.9736 20.8074C27.9929 20.8491 27.8566 20.8506 27.8476 20.9903C28.2176 21.0013 28.5685 21.1576 28.8242 21.4252C28.9384 21.2306 29.0802 21.0534 29.245 20.8992C28.6731 20.3454 27.5362 20.1743 27.7117 19.165C27.7348 19.0356 27.5877 18.9214 27.5227 18.8577C27.4483 18.7874 27.2798 18.7836 27.1769 18.759C27.2853 18.9827 27.0894 19.0045 27.1176 19.3595C27.1176 19.3707 27.0852 19.3635 27.0729 19.3582C27.0062 19.326 26.9421 19.2887 26.8811 19.2466C26.826 19.2178 26.7619 19.2116 26.7022 19.2291C26.6627 19.2359 26.6253 19.2522 26.5934 19.2764C26.545 19.3162 26.5046 19.3648 26.4742 19.4195C26.4666 19.4288 26.4593 19.4407 26.4509 19.4494C26.4328 19.4694 26.4197 19.4934 26.4126 19.5194C26.4423 19.5166 26.5344 19.5234 26.5504 19.548C26.5767 19.5894 26.5777 19.6367 26.6091 19.6762C26.6484 19.726 26.6813 19.7275 26.7383 19.7512C26.8215 19.7891 26.9131 19.8048 27.0042 19.7969" fill="white"/>
<path d="M28.5043 19.4025C28.8613 19.3761 29.2152 19.1036 29.61 19.5646C29.5799 19.5458 29.5457 19.5349 29.5103 19.533C29.4749 19.531 29.4397 19.5381 29.4078 19.5534C29.3173 19.6338 29.2101 19.6929 29.094 19.7267C28.9779 19.7604 28.8557 19.7679 28.7363 19.7486C28.6169 19.7293 28.5033 19.6836 28.4037 19.6149C28.3042 19.5462 28.2211 19.4563 28.1606 19.3515C28.2747 19.3335 28.412 19.4097 28.5043 19.4025Z" fill="white"/>
<path d="M30.049 20.6915C30.6356 20.3963 31.2287 20.1589 31.4702 19.4346C31.5173 19.2937 31.626 19.6452 31.6327 19.6651C31.9431 20.549 31.3246 21.4273 31.4518 22.3289C31.2522 22.2005 31.0231 22.1251 30.7862 22.1099C30.5923 22.0984 30.3983 22.13 30.2181 22.2024C30.0379 22.2748 29.876 22.3862 29.7439 22.5286C29.5076 22.3424 29.2302 22.2153 28.9349 22.1578C28.5586 21.8115 29.6449 20.8965 30.049 20.6915Z" fill="white"/>
<path d="M28.4453 26.5734C28.526 26.6966 28.4187 26.5031 28.5104 26.7137C28.9351 26.5367 29.3745 26.3338 29.8443 26.5239C29.636 25.5735 30.3335 25.3426 30.3885 25.2001C30.477 24.9724 30.0111 24.5188 29.66 24.6451C29.212 24.8047 29.3983 25.3669 29.3143 25.7607C29.2987 25.8162 29.2721 25.8681 29.2363 25.9133C29.2004 25.9585 29.156 25.9961 29.1055 26.024C29.055 26.0519 28.9995 26.0695 28.9421 26.0758C28.8848 26.0821 28.8268 26.0769 28.7714 26.0607C28.6031 25.9846 28.4579 25.8653 28.3506 25.7149C28.2433 25.5645 28.1777 25.3884 28.1604 25.2045C28.099 24.9481 27.597 24.917 27.4884 25.127C27.1803 25.7234 27.6717 25.0576 27.64 25.5106C27.6347 25.5875 27.2797 25.5296 27.2003 25.7981C27.1463 25.981 27.3204 26.1033 27.5398 26.1677C27.5801 26.1795 27.4975 26.0768 27.5527 26.0544C27.5925 26.0389 27.7532 26.1247 27.7342 26.1353C27.523 26.2641 27.469 26.5619 27.8464 26.6916C27.849 26.6922 27.819 26.5846 27.8474 26.5631C27.9376 26.5045 28.0431 26.4742 28.1506 26.476C28.258 26.4779 28.3625 26.5118 28.4505 26.5734" fill="white"/>
<path d="M22.0581 32.5829C22.4112 32.7453 22.5254 32.5708 22.9896 32.4961C23.1418 32.5432 23.28 32.6273 23.3918 32.741C22.9267 32.8144 22.3603 33.2176 22.0581 32.5829Z" fill="white"/>
<path d="M21.8688 32.9528C21.846 32.9314 21.8183 32.916 21.7881 32.908C21.7588 32.8937 21.7274 32.8842 21.6951 32.88C21.6868 32.8781 21.6282 32.8647 21.6192 32.8613C21.6172 32.8822 21.6442 32.936 21.6288 32.9497C21.5918 32.9839 21.5786 32.9758 21.5487 33.0203C21.5367 33.0369 21.5275 33.0554 21.5217 33.0751C21.5088 33.1186 21.4984 33.1629 21.4905 33.2076C21.4914 33.2412 21.4959 33.2745 21.5039 33.3071C21.5072 33.3187 21.5319 33.3684 21.5389 33.3821C21.5389 33.3821 21.5952 33.4425 21.5922 33.4397C21.6576 33.5063 21.6041 33.4671 21.6847 33.547C21.7259 33.5856 21.6658 33.6528 21.6262 33.6413C21.3532 33.5629 21.3151 33.2474 21.0663 33.151C21.0123 33.1367 20.9558 33.1347 20.9009 33.1451C20.8461 33.1555 20.7942 33.1781 20.7492 33.2112C20.7042 33.2443 20.6672 33.2871 20.6409 33.3364C20.6146 33.3856 20.5996 33.4402 20.5972 33.496C20.6098 33.4906 20.6233 33.4877 20.6371 33.4876C20.6508 33.4875 20.6644 33.4901 20.6771 33.4952C20.6898 33.5004 20.7014 33.5081 20.7111 33.5178C20.7208 33.5275 20.7285 33.539 20.7337 33.5517C20.8005 33.8286 21.2076 33.6637 21.2172 33.8578C21.2245 33.9851 20.9128 33.836 20.7896 33.9175C20.7088 33.9943 20.6598 34.0985 20.6521 34.2097C20.6443 34.3208 20.6785 34.4308 20.7479 34.518C20.8963 34.378 21.0808 34.583 21.2245 34.4813C21.3255 34.4091 21.3611 34.308 21.4641 34.2629C21.7771 34.1254 21.8688 34.4119 21.7998 34.7003C22.0147 34.6243 22.2344 34.5625 22.4575 34.5152C22.6223 34.471 22.6295 34.0927 22.8314 33.953C22.545 33.9521 22.1913 33.8286 22.1118 33.5504C22.1044 33.5212 22.1244 33.487 22.127 33.4534C22.1368 33.3495 22.1221 33.2447 22.084 33.1475C22.0775 33.1351 22.0701 33.1231 22.0619 33.1118C22.0507 33.0969 22.041 33.0803 22.0301 33.0642C21.9989 33.0294 21.961 33.0013 21.9188 32.9814C21.9007 32.9696 21.8785 32.9662 21.8653 32.9481" fill="white"/>
<path d="M19.7668 34.9137C19.892 35.1558 19.2751 34.7678 19.0436 35.1262C18.97 35.2413 19.0097 35.5008 19.0097 35.647C19.1511 35.5191 19.2923 35.7627 19.5569 35.5294C19.5864 35.5558 19.6179 35.572 19.5778 35.6128C19.5281 35.6518 19.4918 35.7053 19.4737 35.7659C19.4557 35.8264 19.4568 35.8911 19.477 35.9509C19.544 36.042 19.6308 36.1165 19.7309 36.169C19.7533 36.0113 20.0242 36.169 20.0665 35.8586C20.0847 35.7304 20.1222 35.5179 20.3089 35.5951C20.4788 35.6651 20.5139 35.8564 20.4743 36.0468C20.7452 35.9584 21.2217 35.6822 21.5061 35.8866C21.8883 36.161 22.5161 36.2748 22.9632 36.4127C22.6665 36.2076 22.5722 35.6725 22.6217 35.3241C21.9206 35.483 21.1874 35.4179 20.5253 35.138C20.3469 35.0553 20.3708 34.8499 20.317 34.6807C20.2757 34.5767 20.204 34.4877 20.1111 34.4253C20.0182 34.3629 19.9087 34.3302 19.7968 34.3313C19.6795 34.34 19.3978 34.5852 19.4512 34.5973C19.4328 34.5933 19.4334 34.6331 19.4241 34.6508C19.4371 34.644 19.4515 34.6401 19.4662 34.6393C19.4809 34.6385 19.4956 34.6409 19.5092 34.6463C19.5229 34.6517 19.5353 34.66 19.5455 34.6706C19.5557 34.6812 19.5634 34.6939 19.5683 34.7078C19.5827 34.7504 19.6057 34.7897 19.6358 34.8232C19.6756 34.8621 19.7447 34.8714 19.7668 34.9137Z" fill="white"/>
<path d="M21.4546 38.7427C21.5913 38.576 21.7051 38.665 21.7648 38.6662C21.9076 38.6709 21.8978 38.8712 21.8833 38.9994C22.4433 38.7294 22.9764 38.3451 23.6335 38.4864C23.2511 38.0879 23.3868 37.2329 23.9275 37.1271C23.7974 37.1079 23.6686 37.0812 23.5417 37.0472C23.0713 36.7504 22.4962 36.467 22.1801 37.0889C22.0227 37.3984 22.3116 37.6479 22.5275 37.9024C22.5665 37.9491 22.5035 37.9771 22.4531 37.9901C21.9389 38.1214 20.9912 38.1983 20.9489 37.4326C20.9442 37.3552 20.7453 37.2914 20.6171 37.2948C20.2363 37.3064 20.2424 37.7898 20.2858 37.7562C20.369 37.6934 20.6239 37.7158 20.5931 37.9093C20.5647 38.09 20.2095 37.8141 20.068 37.9961C20.0134 38.0797 19.9818 38.1763 19.9764 38.276C19.971 38.3757 19.992 38.4751 20.0372 38.5642C20.0202 38.5032 20.0918 38.4578 20.1304 38.4521C20.5253 38.3856 20.5476 38.5225 20.4306 38.903C20.4216 38.9316 20.5474 39.1727 20.6305 39.1945C20.624 39.17 20.6262 39.1441 20.6367 39.121C20.6486 39.1027 20.6664 39.089 20.6871 39.0822C20.73 39.0688 20.7737 39.0706 20.8172 39.0591C20.8369 39.051 20.8555 39.0406 20.8727 39.028C20.9018 39.0078 20.9271 38.9825 20.9472 38.9534C21.0393 38.8386 21.12 38.6914 21.2748 38.6765C21.3401 38.6752 21.4036 38.6982 21.453 38.7409" fill="white"/>
<path d="M25.5412 40.5191C25.9018 40.1619 26.1629 39.6865 26.5488 39.3387C26.1258 39.0904 25.601 38.8316 25.5453 38.2747C25.5412 38.237 25.6041 38.1954 25.619 38.2022C26.2073 38.5311 27.001 38.5572 27.4256 37.9592C27.7677 37.4755 27.9164 36.6905 28.5845 36.6454C28.4967 36.4406 28.4882 36.2104 28.5609 35.9998C28.6336 35.7892 28.7822 35.6131 28.9776 35.5061C28.8499 35.431 28.7054 35.389 28.5573 35.3842C28.3889 35.4131 28.3163 35.6408 28.1242 35.676C28.4265 34.6618 27.8418 33.2456 26.7194 33.2698C26.5987 33.2777 26.4827 33.3197 26.385 33.391C26.2873 33.4623 26.2118 33.5599 26.1675 33.6724C26.1219 33.7807 26.1033 33.8984 26.1134 34.0155C26.1236 34.1325 26.1621 34.2453 26.2257 34.3441C26.5934 34.7825 26.8586 35.2597 26.7426 35.8375C26.8853 35.7302 27.0033 35.5936 27.0886 35.4368C27.1739 35.28 27.2245 35.1068 27.2371 34.9287C27.2355 34.8403 27.3965 34.9035 27.4214 34.8671C27.728 34.42 27.2265 34.1431 26.9602 33.8613C26.8865 33.7854 27.0741 33.6671 27.0979 33.6752C28.0605 33.9618 28.1516 35.1415 27.7391 35.9084C27.6294 35.7718 27.2219 35.8166 27.0842 35.7703C27.5342 35.9961 27.4177 36.0285 27.3987 36.1028C27.3648 36.2376 26.9608 36.1791 26.8823 36.278C26.7474 36.45 26.6457 36.5256 26.6351 37.0956C26.8219 36.8952 27.0668 36.5913 27.3318 36.7269C27.8987 37.0163 27.304 37.9913 26.7696 38.1527C26.5587 38.2237 26.3302 38.2227 26.1199 38.1498C25.9096 38.0769 25.7295 37.9362 25.6078 37.7498C25.199 37.1777 25.4958 36.4846 25.2056 35.9044C24.9635 35.9641 25.0187 36.278 24.8927 36.222C24.4477 36.0167 24.1947 35.5431 23.8721 35.1465C23.739 35.1941 23.6795 35.3176 23.5509 35.3114C23.3604 35.303 23.0009 35.2448 22.924 35.34C22.8861 35.4608 22.8724 35.5879 22.8837 35.714C22.895 35.8401 22.9311 35.9627 22.9899 36.0749C23.0487 36.187 23.129 36.2864 23.2263 36.3675C23.3236 36.4485 23.4359 36.5095 23.5568 36.5471C24.0542 36.682 24.5028 36.9559 24.8501 37.3367C24.6245 37.3544 24.5463 37.2465 24.362 37.2396C24.2079 37.2417 24.0577 37.2879 23.929 37.3728C23.8449 37.4315 23.7771 37.5107 23.7319 37.6028C23.6867 37.6949 23.6656 37.797 23.6707 37.8995C23.7937 38.8739 24.9433 38.8873 25.4722 39.5036C25.5633 39.6078 25.3336 40.0312 25.1172 40.203C24.9329 40.3492 24.4902 39.9818 24.562 39.6706C24.6204 39.423 24.0169 39.256 23.8054 39.5406C23.8895 39.531 23.9104 39.5867 23.9026 39.6246C23.8653 39.8548 24.1514 39.8635 24.1419 39.9799C24.1288 40.1407 23.9889 39.9121 23.8786 39.8915C23.7628 39.8655 23.6419 39.8734 23.5305 39.9143C23.419 39.9553 23.3218 40.0275 23.2504 40.1224C23.2076 40.1796 23.1116 40.2739 23.1539 40.3735C23.3404 40.2832 23.4377 40.5716 23.6111 40.482C23.7163 40.4285 23.803 40.3355 23.9302 40.3679C23.981 40.3816 24.0333 40.4497 23.9872 40.4786C23.6481 40.6954 23.3765 40.9994 23.6223 41.3451C23.6256 41.3106 23.6389 41.2778 23.6606 41.2508C23.6822 41.2237 23.7113 41.2036 23.7443 41.1929C23.8433 41.1649 23.9742 41.2324 24.0706 41.2013C24.2285 41.1478 24.1468 40.9926 24.2075 40.8809C24.3015 40.7045 24.622 40.4136 24.802 40.6261C24.8355 40.664 24.8093 40.8065 24.7124 40.8078C24.812 40.8065 24.901 40.903 24.9857 40.8852C25.0101 40.8836 25.034 40.8783 25.0567 40.8694C25.0766 40.8632 25.0953 40.8535 25.1119 40.8407C25.1588 40.8047 25.1914 40.7532 25.204 40.6954C25.2765 40.7017 25.3687 40.7091 25.4162 40.6469C25.4627 40.5901 25.5145 40.5377 25.5706 40.4904" fill="white"/>
<path d="M23.9008 33.4739C24.5313 33.2978 25.2319 32.9723 25.3828 32.2751C25.4643 32.3376 25.5299 32.4185 25.574 32.5113C25.6181 32.6041 25.6394 32.706 25.6363 32.8087C25.6502 33.6826 25.2664 34.4374 25.4528 35.352C25.4731 35.4553 25.6634 35.7804 25.5771 35.7419C25.4721 35.6949 25.2504 35.4877 25.128 35.5841C24.9755 35.7033 24.9856 35.8912 24.9119 35.8476C24.6076 35.6799 24.3618 35.4232 24.2074 35.1119C24.1551 34.9908 24.177 34.7323 24.1427 34.769C23.9325 34.9977 23.5013 35.0465 23.1818 35.0947C23.2596 34.9833 23.3036 34.8517 23.3083 34.7158C23.0572 34.5904 22.6963 35.0182 22.7022 34.9638C22.7057 34.8893 22.7198 34.8156 22.7439 34.7451C22.8178 34.4546 22.9619 34.1867 23.1636 33.965C23.3654 33.7433 23.6185 33.5747 23.9008 33.4739Z" fill="white"/>
<path d="M19.2156 18.5982C19.2914 18.5904 19.3649 18.5674 19.4317 18.5305C19.4984 18.4937 19.557 18.4436 19.6039 18.3835C19.5958 18.475 19.7306 18.6051 19.6806 18.7024C19.6182 18.825 19.4603 18.8981 19.4295 19.0123C19.3648 19.2453 19.553 19.4731 19.4157 19.7039C19.0109 20.3852 18.1275 20.16 17.5238 20.3112C17.5382 20.2743 17.5406 20.2338 17.5307 20.1955C17.5207 20.1571 17.4988 20.123 17.4683 20.0978C17.7361 20.132 18.0922 20.0735 18.1641 19.8722C18.2169 19.775 18.2458 19.6666 18.2484 19.5559C18.2511 19.4453 18.2274 19.3357 18.1793 19.236C17.9856 18.8978 17.5838 19.0556 17.282 19.1731C17.2712 19.09 17.2925 19.0059 17.3415 18.9379C17.3905 18.8698 17.4636 18.823 17.5459 18.807C17.8539 18.7117 18.157 18.6009 18.4538 18.475C18.7132 18.3779 18.9496 18.6051 19.2156 18.5982ZM18.7685 18.9373C18.7951 18.9255 18.8087 18.9071 18.8052 18.9037C18.5767 18.5845 18.3014 18.6163 18.1852 18.9006C18.1062 19.0929 18.5662 19.031 18.7685 18.9373Z" fill="white"/>
<path d="M30.8788 19.8823C30.7925 19.9564 30.6483 19.9545 30.5503 20.0205C30.4906 20.0621 30.4366 20.106 30.3747 20.1433C30.3277 20.1695 30.2782 20.1911 30.2271 20.2078C30.178 20.2206 30.1278 20.2281 30.0771 20.2302C30.0374 20.2368 29.9972 20.2399 29.957 20.2395C29.9086 20.2395 29.7595 20.2435 29.7117 20.2426C29.6283 20.2459 29.5448 20.2417 29.4622 20.2302C29.397 20.2193 29.3329 20.2029 29.2705 20.181C29.2285 20.1671 29.1846 20.1594 29.1404 20.1583C29.1392 20.112 29.1561 20.067 29.1875 20.0329C29.2352 19.9918 29.2447 20.0286 29.3147 20.0223C29.3178 20.0217 29.4137 20.0304 29.4172 20.0304C29.4348 20.0301 29.4523 20.0288 29.4696 20.0267C29.4983 20.0234 29.5262 20.0156 29.5523 20.0034C29.5886 19.9904 29.6234 19.9731 29.6557 19.952C29.6663 19.9427 29.6789 19.934 29.6899 19.9234C29.7128 19.9016 29.7441 19.8904 29.7647 19.8649C29.8327 19.7941 29.8755 19.7029 29.8864 19.6054C29.8964 19.5283 29.8958 19.4503 29.8848 19.3733C29.8828 19.3609 29.8806 19.3485 29.8797 19.3372C29.8702 19.2759 29.8483 19.217 29.8155 19.1643C29.6401 18.832 29.2198 19.1574 28.9319 19.1425C28.9232 19.0676 28.9322 18.9918 28.9582 18.921C29.1637 18.6572 29.4815 18.7869 29.6459 18.6659C30.2005 18.2574 30.3476 18.552 30.9269 18.7113C31.1312 18.7257 31.3353 18.6802 31.5141 18.5803C31.5544 18.5632 31.5538 18.8239 31.5334 18.8768C31.4642 19.0594 31.2744 19.0504 31.2075 19.2141C31.1102 19.4542 31.0951 19.7927 30.8395 19.9141M30.4785 18.8158C30.5038 18.8009 30.4582 18.8354 30.4795 18.814C30.2297 18.6895 29.9044 18.5265 29.7903 18.8588C29.7064 19.1021 30.2621 18.9316 30.4785 18.8158Z" fill="white"/>
<path d="M24.6969 31.6942C24.8159 31.7422 24.9467 31.7531 25.072 31.7255C25.1974 31.6979 25.3114 31.6331 25.3993 31.5396C25.4805 31.8852 25.1623 31.929 25.1031 32.098C25.0138 32.3553 25.0196 32.6126 24.7691 32.7454C24.2492 33.0605 23.674 33.2736 23.0743 33.3733C23.0788 33.3039 23.0305 33.1763 23.1224 33.1716C23.2079 33.1663 23.2904 33.1379 23.3611 33.0894C23.4318 33.041 23.4881 32.9744 23.524 32.8966C23.5866 32.7323 23.5152 32.3338 23.366 32.2564C23.1935 32.1655 23.0426 32.3046 22.8839 32.3739C22.8175 32.1994 23.091 31.9101 23.5197 31.9353C23.5085 31.9347 23.7322 31.6923 23.7216 31.6998C24.0019 31.5081 24.309 31.6046 24.6969 31.6942ZM23.9352 32.1403C24.0341 32.1767 24.328 32.0159 24.4344 31.9564C24.4587 31.9395 24.4804 31.9192 24.4989 31.8961C24.5005 31.8933 24.4969 31.8871 24.4927 31.8865C24.4123 31.8713 24.3311 31.8603 24.2496 31.8538C24.1878 31.8463 24.1417 31.8043 24.0798 31.7928C24.0637 31.7894 24.047 31.7911 24.0318 31.7975C24.0083 31.8065 24 31.8239 23.9809 31.8326C23.951 31.8463 23.9089 31.8463 23.882 31.8709C23.8537 31.8915 23.833 31.9208 23.8229 31.9543C23.8171 31.9773 23.8165 32.0014 23.8211 32.0247C23.8256 32.048 23.8351 32.07 23.849 32.0893C23.8723 32.1142 23.9022 32.1319 23.9352 32.1403Z" fill="white"/>
<path d="M32.476 29.2768C32.4675 29.1925 32.6784 28.943 32.6837 28.7588C32.7038 28.1341 33.0819 27.8392 33.093 27.1715C33.0954 26.9976 32.3705 26.834 32.339 26.4585C32.324 26.2724 32.2621 26.0033 32.4494 26.0074C32.6808 26.0273 32.9113 25.9605 33.096 25.8198C33.8544 25.1555 33.2141 24.248 33.1225 23.4466C33.1024 23.2708 33.4291 22.8925 33.4198 22.7681C33.3672 22.0883 33.2406 21.4686 33.4837 20.8006C33.2932 20.9701 33.2357 21.2508 33.076 21.3939C32.9981 21.4658 32.96 21.3074 32.9652 21.2825C33.0826 20.7021 33.2863 20.1425 33.5696 19.6224C33.8928 18.961 33.731 18.4234 33.1328 18.2258C32.584 18.0442 32.0545 18.5522 31.9952 19.0739C31.9752 19.5643 32.0459 20.0541 32.2038 20.5187C32.2368 20.6335 32.217 20.7642 32.2414 20.8638C32.3283 20.4607 32.3628 20.048 32.3441 19.6361C32.3457 19.5781 32.3641 19.5218 32.3969 19.474C32.4298 19.4262 32.4758 19.3889 32.5294 19.3667C32.5866 19.3401 32.6498 19.3288 32.7127 19.334C32.7755 19.3392 32.836 19.3606 32.8881 19.3962C32.9403 19.4317 32.9823 19.4802 33.01 19.5369C33.0378 19.5936 33.0503 19.6565 33.0464 19.7195C32.9628 20.303 32.8437 20.8808 32.6899 21.4499C32.5179 22.1614 32.7741 22.8667 32.8495 23.558C32.5749 23.3978 32.2769 23.39 32.171 23.8149C32.1134 24.0408 32.3183 24.2785 32.3813 24.4783C32.3877 24.2063 32.6454 23.8355 32.896 24.001C33.2031 24.2045 33.2141 25.1801 33.1464 25.3095C33.0937 25.4535 32.9892 25.5727 32.8534 25.6438C32.7175 25.7149 32.56 25.7329 32.4116 25.6941C32.2197 25.6381 32.2976 25.3556 32.1826 25.2361C31.5988 24.6297 31.2629 23.827 31.2407 22.9855C31.2322 22.8586 31.2989 22.5248 31.2804 22.5176C30.481 22.1897 30.1128 22.5164 29.781 22.9855C29.7238 22.8437 29.4186 22.6449 29.3943 22.6893C29.3181 22.8478 29.2888 23.0247 29.3099 23.1993C29.331 23.3738 29.4016 23.5386 29.5134 23.6743C30.1299 24.2051 30.7406 24.5607 31.0871 25.3192C30.7178 25.3668 30.3564 25.4738 30.2144 25.8583C30.0663 26.26 30.117 26.8181 30.5432 26.9815C30.8908 27.1146 31.4875 26.9659 31.6181 26.9824C31.9874 27.0306 32.4003 27.347 32.3425 27.6948C32.3394 27.7126 32.1842 28.5236 31.8311 28.322C31.6399 28.2135 31.7472 27.7686 31.4562 27.6989C31.0639 27.6046 30.9674 28.1497 31.0172 28.1027C31.1423 27.9845 31.2291 28.1802 31.4717 28.3133C30.6503 28.136 30.9055 28.8854 30.9352 28.8027C30.9775 28.6863 31.1262 28.808 31.4207 28.7878C31.4313 28.7878 31.3565 28.8491 31.3524 28.8556C31.3126 28.9161 31.2784 28.9802 31.2502 29.0469C31.2365 29.0843 31.2333 29.1248 31.2412 29.1639C31.2454 29.2033 31.259 29.2411 31.2809 29.274C31.2859 29.2821 31.293 29.2886 31.3016 29.2927C31.3052 29.2939 31.317 29.3126 31.3193 29.3126C31.3371 29.3145 31.3031 29.255 31.3507 29.2516C31.3689 29.2483 31.3875 29.2473 31.406 29.2488C31.4276 29.2569 31.4557 29.2706 31.4784 29.2768C31.4996 29.2821 31.5218 29.2862 31.5453 29.2902C31.5868 29.3 31.6303 29.2972 31.6702 29.2821C31.713 29.2714 31.754 29.2544 31.7919 29.2317C31.7394 29.2678 31.8502 29.1788 31.8454 29.1885C31.8963 29.0796 31.9281 29.111 31.939 29.092C32.0265 28.9265 32.1024 28.9106 32.2954 28.934C32.3139 28.9358 32.3496 28.9751 32.3611 28.9922C32.3749 29.0127 32.4147 29.1169 32.4076 29.0783C32.4216 29.1552 32.469 29.2031 32.476 29.2768Z" fill="white"/>
<path d="M26.5526 21.753C26.503 21.7213 26.4863 21.6454 26.452 21.6143C26.4414 21.6031 26.4324 21.59 26.4213 21.5782C26.4055 21.5591 26.3945 21.5365 26.3894 21.5122C26.3684 21.4543 26.3657 21.3914 26.3817 21.332C26.3977 21.2725 26.4317 21.2194 26.4789 21.1799C26.4832 21.1762 26.4821 21.17 26.4842 21.1656C26.4896 21.1547 26.5059 21.1494 26.5087 21.1408C26.5119 21.1308 26.5293 21.1308 26.5235 21.1174C26.5308 21.1208 26.5313 21.1103 26.5341 21.1078C26.5403 21.1013 26.5448 21.0934 26.5472 21.0848C26.5497 21.0762 26.55 21.0672 26.5482 21.0584C26.5464 21.0497 26.5425 21.0415 26.5368 21.0346C26.5311 21.0277 26.5238 21.0223 26.5156 21.0188C26.55 21.0195 26.5843 21.0228 26.6183 21.0285C26.6313 21.0317 26.6446 21.0343 26.6579 21.0362C26.7876 21.053 26.9508 21.1115 26.9858 21.2412L27.0314 21.2929C27.1663 21.6056 27.1202 22.3737 27.8717 22.5582C28.2565 22.679 28.6554 22.7496 29.0583 22.7682C28.9612 23.1574 28.9625 23.6514 29.2725 23.9333C28.8215 23.6887 28.5208 23.7404 28.129 23.3708C27.9155 23.169 27.6413 23.0437 27.349 23.0143C27.2678 23.0279 27.4613 22.7551 27.2806 22.7007C27.1621 22.6655 26.8455 22.6733 26.7912 22.7542C26.637 22.9712 26.4182 23.1341 26.166 23.2196C26.2715 23.1303 25.7404 22.6994 26.4 22.4658C26.4631 22.4424 26.4863 22.3 26.4087 22.2639C26.2795 22.2045 26.1718 22.2931 26.0442 22.3671C25.8983 22.4536 25.8647 22.1375 25.6354 22.2542C25.588 21.5791 26.1926 21.5209 26.5526 21.9422C26.5778 21.9739 26.6786 21.9356 26.6368 21.8999L26.5526 21.753Z" fill="white"/>
<path d="M12.7637 17.1138L12.769 17.3315C12.7812 17.8281 12.7922 18.3234 12.8018 18.8174C12.9366 25.2615 13.064 31.348 16.8927 37.1944C18.4726 39.6065 20.8975 41.6141 23.905 42.9998L23.9951 43.0415L24.085 42.9998C27.0882 41.61 29.5089 39.6025 31.0852 37.1944C34.9132 31.3502 35.0413 25.2661 35.1763 18.8236C35.1869 18.3277 35.198 17.8303 35.2096 17.3315L35.215 17.1138H12.7637ZM15.1801 32.9266L24.0113 25.9612L32.8053 32.9083C32.5838 33.482 32.3364 34.0516 32.0591 34.6191L24.0119 28.2615L15.9287 34.639C15.6505 34.0709 15.4009 33.5001 15.1801 32.9266ZM30.7269 36.9617C29.2098 39.2795 26.8832 41.2177 23.9945 42.572C21.1018 41.2211 18.7714 39.2829 17.2513 36.9617C16.9968 36.5732 16.76 36.1833 16.5376 35.7917L24.0113 29.8967L31.4503 35.7739C31.225 36.1715 30.9853 36.5669 30.7269 36.9617ZM34.749 18.8149C34.6558 23.2495 34.5648 27.5124 33.2558 31.628L24.0119 24.3256L14.7296 31.6495C13.4133 27.5251 13.3226 23.2532 13.2294 18.8087C13.2207 18.3865 13.2115 17.9633 13.2018 17.539H34.7771C34.767 17.9649 34.7576 18.3902 34.749 18.8149Z" fill="white"/>
</g>
<defs>
<clipPath id="clip0_1887_2307">
<rect width="116.918" height="28.0349" fill="white" transform="translate(11.769 15.9827)"/>
</clipPath>
</defs>
</svg>
