<svg width="141" height="60" viewBox="0 0 141 60" fill="none" xmlns="http://www.w3.org/2000/svg">
<path d="M32.4679 23.5494H24.9834V16.6851H48.1398V23.508H40.6553V43.3564H32.4679V23.5494Z" fill="white"/>
<path d="M49.4217 16.6851H71.9165V23.508H57.6505V26.8161H71.9165V33.1841H57.6505V36.4922H71.9165V43.315H49.4217V16.6851Z" fill="white"/>
<path d="M81.5099 36.5335H84.7352C89.8627 36.5335 90.607 32.3984 90.607 29.876C90.607 28.1807 90.0695 23.5494 84.1563 23.5494H81.5512V36.5335H81.5099ZM73.2811 16.6851H86.7614C95.6518 16.6851 98.7945 23.2599 98.7945 30.0001C98.7945 38.1875 94.4526 43.3564 85.1487 43.3564H73.2811V16.6851Z" fill="white"/>
<path d="M110.621 33.1014L108.098 28.925L105.659 33.1014H99.6215L105.328 24.6658L99.8282 16.6438H105.865L108.098 20.6135L110.373 16.6438H116.41L110.91 24.6658L116.617 33.06H110.621V33.1014Z" fill="white"/>
</svg>
