<svg width="312" height="115" viewBox="0 0 312 115" fill="none" xmlns="http://www.w3.org/2000/svg">
<g filter="url(#filter0_dd_1887_2204)">
<rect x="24.9746" y="24.9526" width="262.524" height="65.6309" rx="16.5804" fill="#F9FAFB"/>
<g clip-path="url(#clip0_1887_2204)">
<path d="M61.8487 64.3961C62.5281 64.3961 63.0793 63.8454 63.0793 63.1656V51.6802C63.0793 51.0004 62.5281 50.4496 61.8487 50.4496C61.1694 50.4496 60.6182 51.0004 60.6182 51.6802V63.1656C60.6182 63.8454 61.1694 64.3961 61.8487 64.3961ZM67.6732 67.6032V47.2425C67.6732 46.5628 67.122 46.012 66.4426 46.012C65.7632 46.012 65.212 46.5628 65.212 47.2425V67.6032C65.212 68.283 65.7632 68.8338 66.4426 68.8338C67.122 68.8338 67.6732 68.283 67.6732 67.6032ZM72.2678 63.1656V51.6802C72.2678 51.0004 71.7166 50.4496 71.0372 50.4496C70.3579 50.4496 69.8067 51.0004 69.8067 51.6802V63.1656C69.8067 63.8454 70.3579 64.3961 71.0372 64.3961C71.7166 64.3961 72.2678 63.8454 72.2678 63.1656ZM76.8617 67.6032V47.2425C76.8617 46.5628 76.3105 46.012 75.6311 46.012C74.9517 46.012 74.4005 46.5628 74.4005 47.2425V67.6032C74.4005 68.283 74.9517 68.8338 75.6311 68.8338C76.3105 68.8338 76.8617 68.283 76.8617 67.6032ZM81.4563 63.1656V51.6802C81.4563 51.0004 80.9051 50.4496 80.2257 50.4496C79.5463 50.4496 78.9951 51.0004 78.9951 51.6802V63.1656C78.9951 63.8454 79.5463 64.3961 80.2257 64.3961C80.9051 64.3961 81.4563 63.8454 81.4563 63.1656ZM84.8196 46.012C84.1402 46.012 83.589 46.5628 83.589 47.2425V67.6032C83.589 68.283 84.1402 68.8338 84.8196 68.8338C85.4989 68.8338 86.0501 68.283 86.0501 67.6032V47.2425C86.0501 46.5628 85.499 46.012 84.8196 46.012Z" fill="#E71561"/>
</g>
<path d="M89.4825 64.3961C90.1619 64.3961 90.7131 63.8454 90.7131 63.1656V51.6802C90.7131 51.0004 90.1619 50.4496 89.4825 50.4496C88.8032 50.4496 88.252 51.0004 88.252 51.6802V63.1656C88.252 63.8454 88.8032 64.3961 89.4825 64.3961ZM95.307 67.6032V47.2425C95.307 46.5628 94.7558 46.012 94.0764 46.012C93.397 46.012 92.8458 46.5628 92.8458 47.2425V67.6032C92.8458 68.283 93.397 68.8338 94.0764 68.8338C94.7558 68.8338 95.307 68.283 95.307 67.6032ZM99.9016 63.1656V51.6802C99.9016 51.0004 99.3504 50.4496 98.671 50.4496C97.9916 50.4496 97.4404 51.0004 97.4404 51.6802V63.1656C97.4404 63.8454 97.9916 64.3961 98.671 64.3961C99.3504 64.3961 99.9016 63.8454 99.9016 63.1656ZM104.495 67.6032V47.2425C104.495 46.5628 103.944 46.012 103.265 46.012C102.585 46.012 102.034 46.5628 102.034 47.2425V67.6032C102.034 68.283 102.585 68.8338 103.265 68.8338C103.944 68.8338 104.495 68.283 104.495 67.6032ZM109.09 63.1656V51.6802C109.09 51.0004 108.539 50.4496 107.86 50.4496C107.18 50.4496 106.629 51.0004 106.629 51.6802V63.1656C106.629 63.8454 107.18 64.3961 107.86 64.3961C108.539 64.3961 109.09 63.8454 109.09 63.1656ZM112.453 46.012C111.774 46.012 111.223 46.5628 111.223 47.2425V67.6032C111.223 68.283 111.774 68.8338 112.453 68.8338C113.133 68.8338 113.684 68.283 113.684 67.6032V47.2425C113.684 46.5628 113.133 46.012 112.453 46.012Z" fill="#E71561"/>
<g clip-path="url(#clip1_1887_2204)">
<path d="M117.117 64.3961C117.796 64.3961 118.347 63.8454 118.347 63.1656V51.6802C118.347 51.0004 117.796 50.4496 117.117 50.4496C116.437 50.4496 115.886 51.0004 115.886 51.6802V63.1656C115.886 63.8454 116.437 64.3961 117.117 64.3961ZM122.941 67.6032V47.2425C122.941 46.5628 122.39 46.012 121.711 46.012C121.031 46.012 120.48 46.5628 120.48 47.2425V67.6032C120.48 68.283 121.031 68.8338 121.711 68.8338C122.39 68.8338 122.941 68.283 122.941 67.6032ZM127.536 63.1656V51.6802C127.536 51.0004 126.985 50.4496 126.305 50.4496C125.626 50.4496 125.075 51.0004 125.075 51.6802V63.1656C125.075 63.8454 125.626 64.3961 126.305 64.3961C126.985 64.3961 127.536 63.8454 127.536 63.1656ZM132.13 67.6032V47.2425C132.13 46.5628 131.579 46.012 130.899 46.012C130.22 46.012 129.669 46.5628 129.669 47.2425V67.6032C129.669 68.283 130.22 68.8338 130.899 68.8338C131.579 68.8338 132.13 68.283 132.13 67.6032ZM136.724 63.1656V51.6802C136.724 51.0004 136.173 50.4496 135.494 50.4496C134.814 50.4496 134.263 51.0004 134.263 51.6802V63.1656C134.263 63.8454 134.814 64.3961 135.494 64.3961C136.173 64.3961 136.724 63.8454 136.724 63.1656ZM140.088 46.012C139.408 46.012 138.857 46.5628 138.857 47.2425V67.6032C138.857 68.283 139.408 68.8338 140.088 68.8338C140.767 68.8338 141.318 68.283 141.318 67.6032V47.2425C141.318 46.5628 140.767 46.012 140.088 46.012Z" fill="#E71561"/>
</g>
<g clip-path="url(#clip2_1887_2204)">
<path d="M144.751 64.3961C145.43 64.3961 145.982 63.8454 145.982 63.1656V51.6802C145.982 51.0004 145.43 50.4496 144.751 50.4496C144.072 50.4496 143.521 51.0004 143.521 51.6802V63.1656C143.521 63.8454 144.072 64.3961 144.751 64.3961ZM150.576 67.6032V47.2425C150.576 46.5628 150.024 46.012 149.345 46.012C148.666 46.012 148.114 46.5628 148.114 47.2425V67.6032C148.114 68.283 148.666 68.8338 149.345 68.8338C150.024 68.8338 150.576 68.283 150.576 67.6032ZM155.17 63.1656V51.6802C155.17 51.0004 154.619 50.4496 153.94 50.4496C153.26 50.4496 152.709 51.0004 152.709 51.6802V63.1656C152.709 63.8454 153.26 64.3961 153.94 64.3961C154.619 64.3961 155.17 63.8454 155.17 63.1656ZM159.764 67.6032V47.2425C159.764 46.5628 159.213 46.012 158.533 46.012C157.854 46.012 157.303 46.5628 157.303 47.2425V67.6032C157.303 68.283 157.854 68.8338 158.533 68.8338C159.213 68.8338 159.764 68.283 159.764 67.6032ZM164.359 63.1656V51.6802C164.359 51.0004 163.807 50.4496 163.128 50.4496C162.449 50.4496 161.897 51.0004 161.897 51.6802V63.1656C161.897 63.8454 162.449 64.3961 163.128 64.3961C163.807 64.3961 164.359 63.8454 164.359 63.1656ZM167.722 46.012C167.043 46.012 166.491 46.5628 166.491 47.2425V67.6032C166.491 68.283 167.043 68.8338 167.722 68.8338C168.401 68.8338 168.952 68.283 168.952 67.6032V47.2425C168.952 46.5628 168.401 46.012 167.722 46.012Z" fill="#E71561"/>
</g>
<g clip-path="url(#clip3_1887_2204)">
<path d="M172.385 64.3961C173.064 64.3961 173.615 63.8454 173.615 63.1656V51.6802C173.615 51.0004 173.064 50.4496 172.385 50.4496C171.705 50.4496 171.154 51.0004 171.154 51.6802V63.1656C171.154 63.8454 171.705 64.3961 172.385 64.3961ZM178.209 67.6032V47.2425C178.209 46.5628 177.658 46.012 176.979 46.012C176.299 46.012 175.748 46.5628 175.748 47.2425V67.6032C175.748 68.283 176.299 68.8338 176.979 68.8338C177.658 68.8338 178.209 68.283 178.209 67.6032ZM182.804 63.1656V51.6802C182.804 51.0004 182.253 50.4496 181.573 50.4496C180.894 50.4496 180.343 51.0004 180.343 51.6802V63.1656C180.343 63.8454 180.894 64.3961 181.573 64.3961C182.253 64.3961 182.804 63.8454 182.804 63.1656ZM187.398 67.6032V47.2425C187.398 46.5628 186.847 46.012 186.167 46.012C185.488 46.012 184.937 46.5628 184.937 47.2425V67.6032C184.937 68.283 185.488 68.8338 186.167 68.8338C186.847 68.8338 187.398 68.283 187.398 67.6032ZM191.992 63.1656V51.6802C191.992 51.0004 191.441 50.4496 190.762 50.4496C190.082 50.4496 189.531 51.0004 189.531 51.6802V63.1656C189.531 63.8454 190.082 64.3961 190.762 64.3961C191.441 64.3961 191.992 63.8454 191.992 63.1656ZM195.356 46.012C194.676 46.012 194.125 46.5628 194.125 47.2425V67.6032C194.125 68.283 194.676 68.8338 195.356 68.8338C196.035 68.8338 196.586 68.283 196.586 67.6032V47.2425C196.586 46.5628 196.035 46.012 195.356 46.012Z" fill="#E71561"/>
</g>
<g clip-path="url(#clip4_1887_2204)">
<path d="M200.019 64.3961C200.699 64.3961 201.25 63.8454 201.25 63.1656V51.6802C201.25 51.0004 200.699 50.4496 200.019 50.4496C199.34 50.4496 198.789 51.0004 198.789 51.6802V63.1656C198.789 63.8454 199.34 64.3961 200.019 64.3961ZM205.844 67.6032V47.2425C205.844 46.5628 205.292 46.012 204.613 46.012C203.934 46.012 203.382 46.5628 203.382 47.2425V67.6032C203.382 68.283 203.934 68.8338 204.613 68.8338C205.292 68.8338 205.844 68.283 205.844 67.6032ZM210.438 63.1656V51.6802C210.438 51.0004 209.887 50.4496 209.208 50.4496C208.528 50.4496 207.977 51.0004 207.977 51.6802V63.1656C207.977 63.8454 208.528 64.3961 209.208 64.3961C209.887 64.3961 210.438 63.8454 210.438 63.1656ZM215.032 67.6032V47.2425C215.032 46.5628 214.481 46.012 213.801 46.012C213.122 46.012 212.571 46.5628 212.571 47.2425V67.6032C212.571 68.283 213.122 68.8338 213.801 68.8338C214.481 68.8338 215.032 68.283 215.032 67.6032ZM219.627 63.1656V51.6802C219.627 51.0004 219.076 50.4496 218.396 50.4496C217.717 50.4496 217.166 51.0004 217.166 51.6802V63.1656C217.166 63.8454 217.717 64.3961 218.396 64.3961C219.076 64.3961 219.627 63.8454 219.627 63.1656ZM222.99 46.012C222.311 46.012 221.759 46.5628 221.759 47.2425V67.6032C221.759 68.283 222.311 68.8338 222.99 68.8338C223.669 68.8338 224.221 68.283 224.221 67.6032V47.2425C224.221 46.5628 223.669 46.012 222.99 46.012Z" fill="#D1D5DB"/>
</g>
<g clip-path="url(#clip5_1887_2204)">
<path d="M227.653 64.3961C228.332 64.3961 228.884 63.8454 228.884 63.1656V51.6802C228.884 51.0004 228.332 50.4496 227.653 50.4496C226.974 50.4496 226.422 51.0004 226.422 51.6802V63.1656C226.422 63.8454 226.974 64.3961 227.653 64.3961ZM233.477 67.6032V47.2425C233.477 46.5628 232.926 46.012 232.247 46.012C231.567 46.012 231.016 46.5628 231.016 47.2425V67.6032C231.016 68.283 231.567 68.8338 232.247 68.8338C232.926 68.8338 233.477 68.283 233.477 67.6032ZM238.072 63.1656V51.6802C238.072 51.0004 237.521 50.4496 236.841 50.4496C236.162 50.4496 235.611 51.0004 235.611 51.6802V63.1656C235.611 63.8454 236.162 64.3961 236.841 64.3961C237.521 64.3961 238.072 63.8454 238.072 63.1656ZM242.666 67.6032V47.2425C242.666 46.5628 242.115 46.012 241.435 46.012C240.756 46.012 240.205 46.5628 240.205 47.2425V67.6032C240.205 68.283 240.756 68.8338 241.435 68.8338C242.115 68.8338 242.666 68.283 242.666 67.6032ZM247.26 63.1656V51.6802C247.26 51.0004 246.709 50.4496 246.03 50.4496C245.351 50.4496 244.799 51.0004 244.799 51.6802V63.1656C244.799 63.8454 245.351 64.3961 246.03 64.3961C246.709 64.3961 247.26 63.8454 247.26 63.1656ZM250.624 46.012C249.944 46.012 249.393 46.5628 249.393 47.2425V67.6032C249.393 68.283 249.944 68.8338 250.624 68.8338C251.303 68.8338 251.854 68.283 251.854 67.6032V47.2425C251.854 46.5628 251.303 46.012 250.624 46.012Z" fill="#D1D5DB"/>
</g>
<rect x="25.6655" y="25.6435" width="261.142" height="64.2492" rx="15.8896" stroke="#E71561" stroke-width="1.3817" stroke-dasharray="6.91 6.91"/>
</g>
<defs>
<filter id="filter0_dd_1887_2204" x="0.974609" y="0.952637" width="310.524" height="113.631" filterUnits="userSpaceOnUse" color-interpolation-filters="sRGB">
<feFlood flood-opacity="0" result="BackgroundImageFix"/>
<feColorMatrix in="SourceAlpha" type="matrix" values="0 0 0 0 0 0 0 0 0 0 0 0 0 0 0 0 0 0 127 0" result="hardAlpha"/>
<feOffset/>
<feGaussianBlur stdDeviation="12"/>
<feComposite in2="hardAlpha" operator="out"/>
<feColorMatrix type="matrix" values="0 0 0 0 1 0 0 0 0 0.754167 0 0 0 0 0.843132 0 0 0 1 0"/>
<feBlend mode="normal" in2="BackgroundImageFix" result="effect1_dropShadow_1887_2204"/>
<feColorMatrix in="SourceAlpha" type="matrix" values="0 0 0 0 0 0 0 0 0 0 0 0 0 0 0 0 0 0 127 0" result="hardAlpha"/>
<feMorphology radius="2" operator="dilate" in="SourceAlpha" result="effect2_dropShadow_1887_2204"/>
<feOffset/>
<feGaussianBlur stdDeviation="1.5"/>
<feComposite in2="hardAlpha" operator="out"/>
<feColorMatrix type="matrix" values="0 0 0 0 1 0 0 0 0 1 0 0 0 0 1 0 0 0 1 0"/>
<feBlend mode="normal" in2="effect1_dropShadow_1887_2204" result="effect2_dropShadow_1887_2204"/>
<feBlend mode="normal" in="SourceGraphic" in2="effect2_dropShadow_1887_2204" result="shape"/>
</filter>
<clipPath id="clip0_1887_2204">
<rect width="26.2524" height="26.2524" fill="white" transform="translate(60.208 44.2966)"/>
</clipPath>
<clipPath id="clip1_1887_2204">
<rect width="26.2524" height="26.2524" fill="white" transform="translate(115.476 44.2966)"/>
</clipPath>
<clipPath id="clip2_1887_2204">
<rect width="26.2524" height="26.2524" fill="white" transform="translate(143.11 44.2966)"/>
</clipPath>
<clipPath id="clip3_1887_2204">
<rect width="26.2524" height="26.2524" fill="white" transform="translate(170.744 44.2966)"/>
</clipPath>
<clipPath id="clip4_1887_2204">
<rect width="26.2524" height="26.2524" fill="white" transform="translate(198.378 44.2966)"/>
</clipPath>
<clipPath id="clip5_1887_2204">
<rect width="26.2524" height="26.2524" fill="white" transform="translate(226.012 44.2966)"/>
</clipPath>
</defs>
</svg>
