<svg width="20" height="21" viewBox="0 0 20 21" fill="none" xmlns="http://www.w3.org/2000/svg">
<path fill-rule="evenodd" clip-rule="evenodd" d="M18 10.1562C18 14.5745 14.4183 18.1562 10 18.1562C5.58172 18.1562 2 14.5745 2 10.1562C2 5.73797 5.58172 2.15625 10 2.15625C14.4183 2.15625 18 5.73797 18 10.1562ZM12.5 7.65625C12.5 9.03696 11.3807 10.1562 10 10.1562C8.61929 10.1562 7.5 9.03696 7.5 7.65625C7.5 6.27554 8.61929 5.15625 10 5.15625C11.3807 5.15625 12.5 6.27554 12.5 7.65625ZM10 12.1562C8.04133 12.1562 6.30187 13.0948 5.20679 14.5466C6.39509 15.8433 8.1026 16.6562 10 16.6562C11.8974 16.6562 13.6049 15.8433 14.7932 14.5467C13.6981 13.0948 11.9587 12.1562 10 12.1562Z" fill="#6B7280"/>
</svg>
