<svg width="24" height="24" viewBox="0 0 24 24" fill="none" xmlns="http://www.w3.org/2000/svg">
<g id="youtube">
<path id="Vector" d="M21.4417 6.75C21.2568 5.65039 20.3759 4.84961 19.3536 4.59961C17.8238 4.25 14.9926 4 11.9293 4C8.86786 4 5.9913 4.25 4.45967 4.59961C3.43919 4.84961 2.55646 5.59961 2.37158 6.75C2.18488 8 2 9.75 2 12C2 14.25 2.18488 16 2.41689 17.25C2.60359 18.3496 3.4845 19.1504 4.50499 19.4004C6.12906 19.75 8.91318 20 11.9764 20C15.0397 20 17.8238 19.75 19.4479 19.4004C20.4684 19.1504 21.3493 18.4004 21.536 17.25C21.7209 16 21.9529 14.1992 22 12C21.9057 9.75 21.6737 8 21.4417 6.75ZM9.42432 15.5V8.5L15.085 12L9.42432 15.5Z" fill="#9CA3AF"/>
</g>
</svg>
