<svg width="1618" height="791" viewBox="0 0 1618 791" fill="none" xmlns="http://www.w3.org/2000/svg">
<path d="M180.259 -298.817L-62.3032 571.436M318.837 -276.9L76.2748 593.353M457.415 -254.983L214.853 615.27M595.993 -233.066L353.431 637.187M734.571 -211.149L492.009 659.104M873.148 -189.232L630.587 681.021M1011.73 -167.315L769.164 702.938M1150.3 -145.398L907.742 724.855M1288.88 -123.481L1046.32 746.772M1427.46 -101.564L1184.9 768.689M1566.04 -79.6466L1323.48 790.606M1617.5 -33.1066L106.131 -272.139M1595.26 46.6874L83.8908 -192.345M1573.02 126.481L61.6502 -112.551M1550.78 206.275L39.4095 -32.7575M1528.53 286.069L17.1689 47.0365M1506.29 365.863L-5.07174 126.83M1484.05 445.657L-27.3124 206.624M1461.81 525.451L-49.553 286.418M1439.57 605.245L-71.7936 366.212M1417.33 685.039L-94.0342 446.006M1395.09 764.833L-116.275 525.8" stroke="url(#paint0_radial_0_729)" stroke-width="0.643589" style="mix-blend-mode:color-dodge"/>
<defs>
<radialGradient id="paint0_radial_0_729" cx="0" cy="0" r="1" gradientUnits="userSpaceOnUse" gradientTransform="translate(520 14) rotate(51.7784) scale(1000.48 1185.37)">
<stop stop-color="#6F6F6F"/>
<stop offset="0.0001" stop-color="#ACACAC"/>
<stop offset="1" stop-color="#573C46" stop-opacity="0"/>
</radialGradient>
</defs>
</svg>
