<svg width="24" height="24" viewBox="0 0 24 24" fill="none" xmlns="http://www.w3.org/2000/svg">
<g id="heroicons-mini/heart">
<g id="Vector (Stroke)">
<path d="M11.5835 20.2978L11.577 20.2945L11.5548 20.2828C11.536 20.2729 11.5091 20.2586 11.4748 20.24C11.406 20.203 11.3073 20.1488 11.1828 20.0783C10.9339 19.9375 10.5814 19.731 10.1599 19.4647C9.31858 18.9332 8.19267 18.1576 7.06237 17.1836C4.85327 15.2798 2.3999 12.4227 2.3999 8.99998C2.3999 6.01764 4.81756 3.59998 7.7999 3.59998C9.49719 3.59998 11.0104 4.38283 11.9999 5.60587C12.9894 4.38283 14.5026 3.59998 16.1999 3.59998C19.1822 3.59998 21.5999 6.01764 21.5999 8.99998C21.5999 12.4227 19.1465 15.2798 16.9374 17.1836C15.8071 18.1576 14.6812 18.9332 13.8399 19.4647C13.4184 19.731 13.0659 19.9375 12.817 20.0783C12.6925 20.1488 12.5938 20.203 12.5251 20.24C12.4907 20.2586 12.4638 20.2729 12.445 20.2828L12.4228 20.2945L12.4163 20.2978L12.4143 20.2989C12.1559 20.436 11.8439 20.436 11.5863 20.2993L11.5835 20.2978Z" fill="#C9C9C9" style="mix-blend-mode:color-dodge"/>
</g>
</g>
</svg>
